<?xml version="1.0" encoding="UTF-8" standalone="no"?>
<!-- Created with Inkscape (http://www.inkscape.org/) -->

<svg
   width="28.909607mm"
   height="22.094177mm"
   viewBox="0 0 28.909607 22.094177"
   version="1.1"
   id="svg1"
   xml:space="preserve"
   inkscape:version="1.2.2 (b0a8486541, 2022-12-01)"
   sodipodi:docname="Limehouse Lurker.svg"
   inkscape:export-filename="Limehouse Lurker.png"
   inkscape:export-xdpi="150"
   inkscape:export-ydpi="150"
   xmlns:inkscape="http://www.inkscape.org/namespaces/inkscape"
   xmlns:sodipodi="http://sodipodi.sourceforge.net/DTD/sodipodi-0.dtd"
   xmlns="http://www.w3.org/2000/svg"
   xmlns:svg="http://www.w3.org/2000/svg"><sodipodi:namedview
     id="namedview1"
     pagecolor="#ffffff"
     bordercolor="#000000"
     borderopacity="0.25"
     inkscape:showpageshadow="2"
     inkscape:pageopacity="0.0"
     inkscape:pagecheckerboard="0"
     inkscape:deskcolor="#d1d1d1"
     inkscape:document-units="mm"
     inkscape:zoom="0.36378353"
     inkscape:cx="2775.0019"
     inkscape:cy="-599.25748"
     inkscape:window-width="1536"
     inkscape:window-height="779"
     inkscape:window-x="0"
     inkscape:window-y="0"
     inkscape:window-maximized="1"
     inkscape:current-layer="layer1"
     showgrid="false" /><defs
     id="defs1" /><g
     inkscape:label="Warstwa 1"
     inkscape:groupmode="layer"
     id="layer1"
     transform="translate(-914.41994,266.93121)"><path
       style="fill:#000000;stroke-width:0.264583"
       d="m 921.71171,-245.66402 c -3.94812,-1.9729 -6.79754,-6.88107 -7.1409,-12.30033 l -0.15087,-2.38125 h 3.54074 c 4.56194,0 6.92039,-0.6877 10.08979,-2.94209 0.69156,-0.4919 1.35425,-0.89437 1.47264,-0.89437 0.11838,0 0.47981,0.47072 0.80316,1.04605 1.60265,2.85154 2.38989,7.06997 1.91512,10.26214 -0.96342,6.47756 -5.61767,9.66441 -10.52968,7.20985 z m 4.82746,-2.26896 c 1.02978,-0.48866 1.53019,-1.17066 1.99343,-2.7168 0.40811,-1.36215 0.039,-2.00067 -0.74583,-1.29037 -1.01404,0.9177 -2.81386,1.5047 -4.6317,1.51061 -1.98857,0.006 -2.16179,0.20853 -1.18931,1.38724 1.21297,1.47022 2.93345,1.88753 4.57341,1.10932 z m -7.15442,-7.85478 c 1.94578,-0.48571 1.88507,-0.45503 1.4478,-0.73156 -0.71325,-0.45107 -2.17518,-0.28471 -2.8198,0.32088 -0.72367,0.67985 -0.80428,1.15048 -0.14935,0.87184 0.25466,-0.10834 0.93927,-0.31586 1.52135,-0.46116 z m 9.16044,-2.30888 c 0.92786,0 0.99181,-0.43555 0.12214,-0.8318 -0.5102,-0.23246 -0.84416,-0.19124 -1.65365,0.20411 -0.55789,0.27247 -1.05394,0.70946 -1.10233,0.97109 -0.0827,0.44736 -0.0296,0.4513 0.89221,0.0661 0.53911,-0.22525 1.32284,-0.40955 1.74163,-0.40955 z m 2.61352,11.15842 c 0,-0.37239 1.61229,-3.75009 1.79005,-3.75009 0.084,0 0.3704,0.19705 0.63652,0.43788 0.45196,0.40903 0.48385,0.40604 0.48385,-0.0453 0,-0.26576 -0.20003,-0.70422 -0.4445,-0.97436 -0.35922,-0.39693 -0.45312,-1.11166 -0.48941,-3.72501 -0.0501,-3.60609 -0.70436,-6.1884 -2.24393,-8.85622 -0.92796,-1.608 -1.33097,-1.69748 -2.633,-0.58456 -0.50382,0.43065 -1.0129,0.783 -1.13127,0.783 -0.30024,0 0.42722,-1.27753 1.34769,-2.36677 l 0.77032,-0.91155 1.76468,1.617 c 2.94605,2.69952 6.36276,4.1862 10.79848,4.69864 1.45126,0.16766 1.52136,0.21016 1.52136,0.9226 0,1.18463 -1.02157,4.22354 -2.03499,6.0536 -1.31484,2.37438 -3.78712,4.79952 -5.90251,5.78998 -1.77719,0.83211 -4.23334,1.36076 -4.23334,0.91117 z m 8.42946,-9.27775 c 0.25869,-0.1639 -0.0756,-0.43777 -1.19062,-0.97544 -0.85266,-0.41116 -1.63959,-0.79296 -1.74873,-0.84845 -0.45876,-0.23322 -0.15045,0.68839 0.39687,1.18634 0.92193,0.83876 1.85546,1.07285 2.54248,0.63755 z"
       id="path1488" /></g></svg>
