<?xml version="1.0" encoding="UTF-8" standalone="no"?>
<!-- Created with Inkscape (http://www.inkscape.org/) -->

<svg
   width="210mm"
   height="297mm"
   viewBox="0 0 210 297"
   version="1.1"
   id="svg2710"
   inkscape:version="1.2.2 (b0a8486541, 2022-12-01)"
   sodipodi:docname="card_corner.svg"
   xmlns:inkscape="http://www.inkscape.org/namespaces/inkscape"
   xmlns:sodipodi="http://sodipodi.sourceforge.net/DTD/sodipodi-0.dtd"
   xmlns="http://www.w3.org/2000/svg"
   xmlns:svg="http://www.w3.org/2000/svg">
  <sodipodi:namedview
     id="namedview2712"
     pagecolor="#ffffff"
     bordercolor="#000000"
     borderopacity="0.25"
     inkscape:showpageshadow="2"
     inkscape:pageopacity="0.0"
     inkscape:pagecheckerboard="0"
     inkscape:deskcolor="#d1d1d1"
     inkscape:document-units="mm"
     showgrid="false"
     inkscape:zoom="0.66645629"
     inkscape:cx="357.11269"
     inkscape:cy="548.42306"
     inkscape:window-width="2048"
     inkscape:window-height="983"
     inkscape:window-x="0"
     inkscape:window-y="0"
     inkscape:window-maximized="1"
     inkscape:current-layer="layer1" />
  <defs
     id="defs2707" />
  <g
     inkscape:label="Layer 1"
     inkscape:groupmode="layer"
     id="layer1">
    <g
       id="g2461"
       transform="matrix(0.03527778,0,0,-0.03527778,-106.17215,102.89071)">
      <path
         d="m 4564.4629,2077.3703 c 0.11,-0.45 0.21,-0.9 0.31,-1.35 0.06,0.07 0.12,0.13 0.19,0.19 0.04,0.2 0.08,0.41 0.13,0.61 0.06,0.26 0.13,0.53 0.19,0.8 -0.3,0.03 -0.61,0.06 -0.91,0.09 0.03,-0.12 0.06,-0.23 0.09,-0.34 z m 7.5,-421.08 c -3.49,2.83 -2.98,7.88 -4.34,11.82 -7.85,4.1 -10.64,14.91 -14.38,22.49 -0.89,10.06 1.88,20.3 1.09,30.53 -0.2,28.77 0.71,57.3 1.47,85.96 -1.72,51.67 -3.74,103.77 -4.53,155.7 1.41,13 -6.19,59.14 2.56,64.61 -0.33,14.93 -0.39,29.93 -2.8,44.64 -11.06,24.78 8,21.28 25.54,18.52 10.95,-6.23 -1.58,-20.84 0.82,-30.76 -1.37,-48.78 0.4,-97.72 -2.27,-146.44 4.59,-16.98 0.03,-36.52 1.46,-54.32 0.93,-48.46 -2.93,-97.19 -0.43,-145.33 1.03,-12.63 1.94,-25.35 4.29,-37.82 0.94,-4.34 2.11,-8.62 2.95,-12.98 1.17,-6.07 -6.74,-10.57 -11.43,-6.62 z m -13.52,561.44 c -2.99,1.33 -4.37,3.97 -4.86,7.1 -0.07,0.45 -0.14,0.91 -0.2,1.36 -3.94,3.3 -2.18,33 0.04,37.98 -0.98,15.63 -2.98,31.88 -8.75,46.52 1.55,11.83 18.13,9.07 26.8,8.89 11.03,-0.2 10.69,-10.63 6.95,-18.3 2.38,-6.71 -0.61,-14.03 -1.1,-20.9 -1.05,-5.41 -1.07,-11.26 -3.41,-16.3 1.01,-8.76 1.82,-17.59 3.86,-26.2 8.25,-5.57 -1.51,-17.63 -9.08,-12.07 0.28,-5.39 -4.95,-10.48 -10.25,-8.08 z m 18.24,-1215.43 c -15.71,3.37 -11.24,19.52 -11.73,31.36 -2.46,5.82 -1.63,12.59 -2.26,18.8 0.2,6.09 -1.51,12.93 1.3,18.56 -3.06,65.51 -5.68,131.35 -2.42,196.97 -3.46,58.97 -6.74,117.97 -3.86,177.15 2.73,26.58 -3.44,52.68 -4.41,79.19 -0.3,29.2 -4.64,60.28 0.11,88.8 -4.51,6.31 -5,18.12 5.68,16.24 8.86,-4 8.65,-15.99 12.85,-23.69 5.92,-5.07 3.74,-14.32 6.77,-20.97 1.4,-7.04 7.16,-17.37 -0.21,-22.67 -1.05,-39.55 3.32,-80.48 -0.28,-119.37 1.58,-19.01 2.7,-38.06 3.62,-57.11 3.52,-17.28 0,-36.08 0.94,-53.84 3.85,-8.17 0.82,-18.13 1.58,-26.96 -0.29,-23.47 -0.5,-46.96 -0.14,-70.43 -1.72,-9.94 6.1,-46.82 -2.8,-48.81 0.49,-18.83 1.27,-37.64 2.41,-56.43 0.04,-0.62 0.07,-1.24 0.11,-1.87 8.76,-2.81 3.44,-41.21 5.25,-51.31 0.28,-15.28 0.51,-30.57 1.29,-45.84 0.16,-10.05 2.22,-31.73005 -13.8,-27.77 z m -22.8,-615.21105 c -5.72,5.922 0.85,13.273 7.78,13 13.66,27.242 4.71,75.543 4.35,106.172 -1.51,28.621 -2.39,57.281 -2.62,85.961 1.39,13.57 -3.11,34.828 4.83,45.75 -2.12,60.738 -3.46,121.428 -8.2,181.998 0.41,15.82 24.92,11.82 26.78,-1.56 5.39,-23.87 3.58,-48.82 4.01,-73.149 0.63,-24.653 0,-49.18 -0.77,-73.942 -0.23,-26.23 -0.39,-52.449 -0.36,-78.679 -1.46,-11.211 3.51,-30.891 -2.57,-39.559 0.04,-9.23 0.08,-18.449 0.16,-27.68 0.02,-1.871 0.04,-3.75 0.06,-5.632 6.51,-5.129 2.83,-15.668 4.12,-23 -0.8,-17.637 3.52,-36.77 -0.2,-53.707 -4.36,-30.731 30.49,-46.59 -4.52,-53.692 -6.62,-1.34 -13.31,-2.191 -20.01,-3.019 -3.85,-1.809 -9.56,-2.512 -12.84,0.738 z m 127.53,57.312 c -8.88,3.899 -2.65,12.789 -1.16,19.258 4.46,29.41 -2.08,59.063 -2.35,88.653 -0.95,15.097 -1.19,30.238 -2.48,45.32 -0.1,8.488 -5.78,28.957 8.93,25.879 0.37,19.91 -4.88,40.758 -2.02,60.211 -1.11,21.629 -0.48,43.718 -3.4,65.008 -0.94,4.52 -2.78,9.08 -2.49,13.73 1.08,7.74 10.24,15.05 15.55,6.08 11.05,-7.79 6.46,-25.182 8.12,-36.998 -1.08,-9.871 6.03,-32.523 -2.54,-38.16 1.07,-25.16 2.26,-50.32 3.8,-75.473 -0.52,-8.89 3.88,-19.808 -1.26,-27.597 0.06,-29.622 4,-60.09 1.43,-89.352 -0.49,-6.602 3.11,-15.129 -1.76,-20.5 1.88,-15.898 6.18,-40.84 -18.37,-36.059 z m 12.75,514.529 c -4.15,2.37 -8.16,5.56 -7.33,10.91 0.33,9.02 0.28,18.05 0.31,27.08 0.88,24.92005 -1.29,50.42005 1.23,75.07005 -3.38,81.61 -4.82,163.66 -0.58,245.28 -6.15,6.86 -1.21,19.79 -2.15,28.53 1.21,13.68 0.06,27.07 -2.9,40.46 -3.36,6.25 0.97,15.43 8.75,12.42 4.12,-1.62 4.43,-6.03 5.41,-9.73 4.78,-14.91 13.42,-28.42 18.05,-43.29 -1.28,-14.91 -6.7,-29.15 -7.94,-44.03 -0.57,-15.35 -1.02,-30.71 -1.47,-46.09 -1.07,-6.07 1.99,-13.91 -2.57,-18.76 0.14,-3.25 0.29,-6.51 0.43,-9.77 0.34,-7.55 0.78,-15.11 1.12,-22.67 3.94,-8.8 2.16,-19.28 2.9,-28.74 0.15,-23.06 -0.46,-46.11 -0.64,-69.16 -0.1,-10.77 -0.09,-21.53 0.04,-32.3 -1.05,-8.77 4.66,-28.34 -2.79,-33.29 0.01,-1.33 0.01,-2.67 0.01,-4.01 7.44,-4.38 2.44,-26.39 4.06,-34.96 -1.18,-11.03005 7.95,-53.76005 -13.94,-42.95005 z m -248.74,858.16005 c -2.48,1.81 -3.11,4.84 -3.21,7.74 -6.18,8.01 -10.3,19.17 -12.39,29.12 1.21,11.23 3.11,22.43 3.63,33.77 -1.18,26.67 1.35,53.91 3.04,80.65 -0.5,51.21 -1.58,102.6 1.01,153.77 -5.03,24.66 -3.7,50.14 -3.17,75.17 -2.53,15.69 -4.85,31.42 -5.5,47.33 -9.24,1.91 -12.89,19.81 -0.94,19.91 4.76,5.62 8.12,13.44 14.79,16.97 3.83,8.89 14.91,17.83 18.39,3.82 -3.36,-15.82 -6.31,-32.34 -10.63,-47.71 0.27,-9.72 0.41,-19.5 1.66,-29.15 0.49,-4.3 2.32,-9.65 -1.02,-13.2 0.08,-2.33 0.14,-4.66 0.19,-6.99 5.04,-8.05 0.23,-19.55 1.24,-28.77 -0.59,-13.23 2.11,-26.71 0.16,-39.82 0.2,-14.49 0.68,-29.05 1.44,-43.54 0.11,-2.05 -0.83,-3.9 -2.29,-5.2 0,-0.03 0,-0.05 0,-0.07 4.48,-4.25 2.11,-11.36 2.35,-16.85 -0.79,-18.39 -1.53,-36.79 -2.07,-55.19 9.02,-1.18 3.66,-65.44 5.62,-77.58 3.67,-5 1.14,-11.68 1.1,-17.39 -1.3,-13 -0.24,-26.1 -0.67,-39.15 -2.07,-9.65 6.18,-58.36 -12.73,-47.64 v 0"
         style="fill:#eac478;fill-opacity:1;fill-rule:evenodd;stroke:none"
         id="path2188" />
      <path
         d="m 4560.1129,2229.4303 c 1.7,18.56 -4.6,80.77 16.85,85.95 12.64,4.54 16.84,-12.95 3.4,-13.94 -7.36,-23.27 -5.22,-47.99 -5.96,-72.01 0.09,-9.22 -14.37,-9.26 -14.29,0 z m 6.95,-560.7 c -1.65,83.26 -2.13,166.52 -3.52,249.77 -0.18,36.31 1.7,72.58 2.11,108.87 0.21,9.35 -0.39,18.77 -0.75,28.17 -1.77,0.02 -3.53,0.24 -5.08,0.49 -8.85,-0.48 -12.86,6.81 -10.58,11.43 -3,2.91 -3.82,6.68 0.62,10.97 -6.37,10.4 11.79,16.29 17.51,8.82 0.17,-0.02 0.35,-0.03 0.53,-0.05 5.09,4.4 14.22,-1.02 11.19,-9.28 0.05,-2.03 0.09,-4.06 0.12,-6.09 0.48,-1.43 0.47,-2.78 0.08,-4.01 0.72,-39.8 0.11,-79.57 -1.23,-119.38 -0.96,-58.14 2.1,-116.27 1.45,-174.42 -0.23,-35.12 1.91,-70.19 1.83,-105.29 0.05,-9.1 -14.39,-9.35 -14.28,0 z m 8.48,-662.09 c -6.32,186.91 -6.59,374.05 -8.91,560.93 -4.06,5.38 -8.2,10.75 -13.2,15.35 -6.55,2.54 -9.88,12.58 -1.8,15.55 -2.96,4.41 -5.21,11.01 0.29,14.46 -2.97,4.42 -8.28,8.69 -7.75,14.43 1.26,7.42 11.66,7.68 14.17,0.86 5.7,-1.53 7.86,-7.65 11.46,-11.7 3.16,-4.54 8.82,-10.07 5.19,-15.87 1.55,-3.34 4.19,-7.62 4.51,-11.5 0.06,-0.25 0.1,-0.51 0.14,-0.8 0.7,-5.15 1.22,-10.33 1.63,-15.51 1.48,-2.57 2.91,-5.15 4.01,-7.86 0.79,-3.03 -0.77,-5.86 -3.16,-7.42 1.12,-31.49 -1.31,-63.2 -0.52,-94.68 1.87,-87.94 0.78,-175.92 3.46,-263.85 1.26,-43.27 1.73,-86.54 3.47,-129.8 0.6,-20.86 0.59,-41.73 1.3,-62.59 0.12,-9.03005 -14.32,-9.40005 -14.29,0 z m 120.58,190.85 -0.01,-0.01 c 0,-0.21 0,-0.43 0,-0.65 0,-0.05 0,-0.1 0,-0.15 0,-0.13 0,-0.27 0,-0.4 0,0.19 0,0.37 0,0.55 0,0.22 0.01,0.45 0.01,0.66 z m 0,0.18 v -0.08 0.08 -0.15 c -0.01,-0.04 -0.01,-0.31 -0.01,-0.57 0,-0.27 -0.35,-41.77 -0.16,-83.26 -0.01,-41.52 -0.01,-42.9 -0.01,-44.28 0,-1.38 0,-0.9 0,-0.42 0,0.48 0,-0.12 0,-0.71 0,-0.6 0,-0.11 0,0.36 0,0.48 0,-17.01 -0.08,-34.49 0.31,-17.48 0.59,-33.37 1.89,-49.25005 0.14,-15.91 0.14,-16.4 0.14,-16.88 0,-0.49 0,0 0,0.48 0,0.49 0,-1.88 0.01,-4.26 -0.03,-2.37 -0.06,-3.87 -0.45,-5.29 -0.66,-1.27 0.58,-3.45 2.97,-4.95 2.61,0 15.35,0.23 8.05,29.06 1.71,9.37 0.3,117.00005 0.23,224.71005 0.09,107.61 0.84,108.94 1.12,110.56 -0.44,1.83 -0.64,2.44 -0.82,3.04 l -0.2,0.61 c 0.01,12.47 3.67,15.47 2.52,21.97 -2.29,4.2 1.98,14.69 -18.85,39.66 -2.7,12.83 -2.7,20.57 -14.54,22.19 -2.08,-7.5 -2.2,-9.68 -1.98,-11.82 0.46,-2.11 3.51,-3.45 5.87,-6.13 0.63,-3.6 1.05,-5.98 1.04,-8.45 0.09,-2.42 0.12,-3.12 0.15,-3.82 0.03,-0.69 0.9,-2.72 1.68,-4.75 0.59,-2.04 -0.22,-2.46 -0.88,-2.95 -0.51,-0.54 -0.39,-4.84 -0.28,-9.15 0.09,-4.29 0.11,-4.33 0.12,-4.37 0.02,-0.04 0,-0.04 -0.01,-0.04 -0.02,0 -0.01,-0.19 -0.01,-0.38 0.01,-0.19 0.08,-3.65 -1.48,-6.85 -2.53,-2.03 -2.69,-3.21 -2.88,-4.39 -0.18,-1.17 0.59,-2.29 1.55,-3.3 1.09,-0.83 5.62,-7.13 9.88,-13.66 l 3.6,-6.88 c 0.07,-22.47 0.22,-24.12 0.36,-25.78 0.14,-1.64 1.04,-11.79 1.81,-21.94 0.35,-10.19 1.04,-29.81 -0.01,-49.41 -0.3,-19.6 -0.3,-19.64 -0.3,-19.68 0,-0.03 -0.01,-0.41 -0.01,-0.79 -0.01,-0.38 0,-0.16 0,0.05 0.01,0.22 -0.01,-0.79 -0.02,-1.78 -0.01,-1.01 -0.01,-0.54 0,-0.07 0,0.46 -0.01,-0.49 -0.01,-1.44 -0.01,-0.94 0,-0.48 0,-0.01 0,0.46 0,0.17 0,-0.13 v -0.29 z m -110.89,-801.37805 c -7.33,14.809 -5.87,32.168 -7.59,48.227 -2.95,34.582 -1.54,69.351 -1.11,104.011 0.23,71.422 1.69,143.102 0.47,214.36 -11.19,3.52 -24.83,10.32 -13.12,19.09 0.03,0.58 0.13,1.18 0.31,1.76 0.1,0.3 0.22,0.58 0.35,0.85 -4.46,3.85 -6.43,11.94 -0.14,14.99 0.22,1.2 0.73,2.27 1.52,3.23 -0.68,0.94 -1.32,1.93 -1.87,2.96 -1.3,2.41 -1.13,5.36 0.19,7.67 -1.36,6.11 -6.58,14.6 1.08,18.71 7.65,3.07 14.4,-4.95 19.94,-9.16 4.52,-3.36 8.19,-10.23 3.02,-14.71 0.16,-0.69 0.25,-1.4 0.21,-2.14 -0.11,-2.1 -1.13,-3.93 -2.63,-5.19 5.72,-4.73 7.41,-15.78 -2.16,-16.47 0.99,-1.84 1.36,-3.94 0.7,-5.95 3.74,-3.19 9.96,-5.22 9.7,-11.08 -0.11,-2.34 -1.37,-4.35 -3.18,-5.6 3.04,-98.761 -1.87,-197.89 -0.36,-296.781 1.54,-18.66 1.53,-37.597 5.01,-56.027 1.36,-5.121 5.65,-11.344 -0.53,-15.094 -3.25,-2.008 -7.81,-1.019 -9.81,2.344 z m 108.35,59.379 c -7.58,35.859 -5.4,72.711 -6.01,109.129 -1.63,50.691 2.15,101.539 2.69,152.101 -0.18,0.149 -0.36,0.297 -0.54,0.469 -6.6,4.988 -24.25,12.59 -10.5,20.832 0.35,0.406 0.73,0.77 1.15,1.098 -0.62,0.969 -1.16,1.969 -1.54,3.051 -0.97,2.769 -0.41,5.558 1.33,7.879 -2.18,2.66 -3.42,6.43 -1.89,9.7 -10.35,14 12.38,18.37 15.52,4.59 4.33,-3.78 10.61,-9.95 5.21,-15.521 2.58,-3.117 3.7,-7.91 0.69,-11.141 0.91,-0.937 1.68,-2.066 2.21,-3.277 2.05,-1.652 3.23,-4.391 2.19,-7.832 1.28,-28.039 -0.49,-56.09 -1.99,-84.07 -0.9,-41.68 -0.19,-83.328 0,-125 0.29,-20.008 1.41,-40.059 5.58,-59.668 1.54,-9.02 -12.69,-11.531 -14.1,-2.34 z m -251.17,1364.07905 c 1.13,115.04 -0.87,230.11 2.12,345.11 0.31,28.82 0.48,57.64 0.09,86.46 0.09,11.46 -0.87,24.03 4.7,34.4 5.28,6.94 16.46,-0.48 11.85,-8.03 -5.46,-32 -0.3,-65.29 -2.24,-97.74 -2.2,-88 -1.64,-176.05 -1.9,-264.08 -0.26,-32.03 0.1,-64.08 -0.35,-96.12 0.08,-9.06 -14.37,-9.37 -14.27,0 v 0"
         style="fill:#caa14d;fill-opacity:1;fill-rule:evenodd;stroke:none"
         id="path2190" />
      <path
         d="m 4781.7529,1300.2903 c 3.35,-10.53 11.67,-20.56 10.81,-31.88 -3.38,-11.58 -5.51,-23.49 -6.68,-35.37 -1.74,-13.18 -2.39,-26.52 -2.45,-39.8 -0.54,-8.63 3.87,-29.18 -11.04,-22.97 -6.66,7.26 -4.15,19.27 -7.52,28.24 -12.71,45.54 -22.33,92.17 -44.13,134.47 -9.37,23.93 -22.4,46.05 -31.39,70.13 -2.95,7.45 -7.09,14.77 -10.17,22.33 -1.94,0.36 -3.73,1.61 -4.78,3.99 -16.7,39.71 -32.91,79.94 -56.61,116.13 -15.3,22.81 -32.7,44.2 -48.71,66.55 -7.3,10.58 -15.47,21.19 -19.46,33.56 -17.02,20.53 -34.54,41.07 -55.93,56.58 -7.87,1.76 -13.96,8.83 -21.09,12.6 -10.75,7.67 -22.77,13.42 -33.56,20.84 h -0.01 c -0.84,0.09 -1.73,0.36 -2.63,0.82 -33.6,18.58 -72.95,16.58 -109.44,9.27 -10.62,-3.98 -21.39,-10.12 -32.82,-10.74 -18.59,-17.1 -26.15,-42 -34.43,-65.07 -2.72,-3.9 -1.23,-8.31 -2.69,-12.4 -0.71,-1.33 -1.74,-2.3 -2.94,-2.91 -7.54,-37.09 -13.85,-68.88 -51.54,-89.63 -14.06,-9.86 -29.95,-16.69 -46.68,-20.57 -4.41,-0.89 -10.95,-3.04 -14.9,-1.03 -4.19,-2.26 -8.67,-3.88 -13.45,-4.57 -5.98,1.15 -7.59,10.05 -2.12,13.05 22.78,9.25 39.48,33.17 40.55,57.71 2.5,27.85 -11,53.71 -10.99,81.24 2.11,67.87 74.87,99.74 134.17,102.43 38.33,5.06 75.87,-3.52 113.44,-9.76 0.01,1.85 0.52,3.32 1.36,4.43 -4.26,2.46 -8.6,4.77 -13.08,6.84 -11.85,4.7 -23.9,8.93 -35.89,13.25 -34.93,6.02 -72.03,-0.49 -105.81,10.73 -72.9,22.48 -113.51,89.24 -75.13,160.52 16.67,28.75 34.81,60.61 28.09,95.18 -1.6,6.68 -3.86,13.15 -6.71,19.38 -1.39,2.86 -3.11,5.96 -1.82,9.17 3.5,8.18 12.54,3.67 16.72,-1.48 7.62,-7.26 15.97,-13.76 22.82,-21.8 39.16,-41.43 36,-101.04 40.87,-154.06 1.16,-13.61 4.58,-26.86 8.79,-39.81 1.21,-4.2 4.27,-9.04 1.28,-13.1 10.96,-12.54 23.96,-23.79 38.08,-32.74 4.57,-4.15 14.65,-5.24 17.09,-10.84 5.95,-2.26 11.94,-4.43 17.92,-6.6 3.75,-0.62 7.19,-1.63 9.42,-3.43 22.94,-8.38 45.56,-17.37 65.57,-31.97 -30.82,42.34 -60.27,86.65 -77.03,136.55 -0.11,0.42 -0.2,0.84 -0.23,1.25 -19.48,42.58 -35.62,87.37 -38.58,134.26 -0.48,41.76 6.39,83.94 20.05,123.4 16.46,39.75 39.76,76.46 69.81,106.97 2.93,3.27 8.22,7.54 12.87,8.23 60.31,54.64 135.15,74.16 205.6,21.47 9.37,0.08 23.75,-11.7 27.57,-17.06 5.32,-7.59 8.09,-16.86 10.36,-25.75 0.2,-0.68 0.27,-1.36 0.24,-2.03 0.62,-1.05 0.95,-2.26 0.98,-3.48 7.29,-16.05 11.23,-33.69 11.62,-52.02 -0.62,-8.56 5.85,-29.53 -7.04,-29.92 -2.26,-12.34 -5.84,-24.38 -9.84,-36.23 -1.57,-4.17 -1.75,-9.87 -6,-12.26 -6.07,-11.17 -13.98,-27.97 -27.7,-30.14 -1.37,-1.28 -3.09,-2.91 -4.99,-4.49 -1.72,-11.16 -36.24,-16.21 -44.28,-14.14 -11.29,0.91 -23.06,2.96 -32.44,9.73 -11.72,0.41 -17.17,14.48 -22.84,22.99 -16.05,27.75 -7.34,82.2 25.34,94.23 1.73,0.75 3.34,0.78 4.73,0.35 0.28,0.03 0.57,0.06 0.85,0.1 1.25,0.14 2.49,0.23 3.76,0.26 0.98,2.77 3.65,4.78 6.73,4.78 0.5,0 0.98,-0.05 1.46,-0.15 0.01,0 0.02,0 0.03,0 1.85,-0.1 3.9,-1 5.92,-2.98 13.09,-5.72 24.62,-15.29 28.81,-29.47 2.51,-8.03 9.3,-35.66 -0.5,-40.86 -0.64,-1.89 -1.35,-3.75 -2.1,-5.6 -1.87,-4.55 -4.37,-8.86 -6.17,-13.45 -0.19,-1.75 -0.97,-3.36 -2.2,-4.54 1.11,-0.13 2.19,-0.4 3.19,-0.94 32.31,25.73 46.99,42.74 55.21,84.24 1.31,7.78 3.47,15.69 1.78,23.56 -0.37,5.65 -2.88,11.85 -0.44,17.27 -0.52,3.85 -1.52,7.55 -2.78,11.16 -1.2,0.35 -2.33,1.01 -3.29,2.06 -5.69,7.85 -8.24,17.69 -14.92,24.94 -11.15,12.37 -26.46,20.11 -41.79,26.05 -34.29,12.74 -72.49,10.26 -105.29,-5.67 -18.29,-9.57 -32.56,-24.2 -47.25,-38.34 -15.7,-14.86 -31.07,-30.14 -42.12,-48.89 -8.54,-16.37 -16.49,-33.05 -23.22,-50.24 -2.08,-3.94 -3.08,-9.96 -5.72,-14 -2.97,-25.34 -5.89,-50.89 -9.34,-76.06 1.8,-20.01 3.73,-40.01 6.27,-59.94 1.04,-9.17 8.6,-22.85 4.32,-31.1 14.22,-38.4 29.19,-76.6 47.61,-113.2 3.75,-7.59 7.69,-15.05 12.03,-22.3 2.04,-4.08 6.41,-8.32 4.31,-13.16 17.76,-24.83 34.15,-50.61 52.72,-74.85 9.33,0.38 13.94,-12.84 19.85,-18.64 10.46,-13.74 21.02,-27.4 31.79,-40.87 5.16,-2.56 7.78,-8.68 11.76,-12.73 3.75,-5.82 11,-10.49 12.05,-17.57 0.25,-0.41 0.53,-0.82 0.83,-1.22 0.01,0 0.01,-0.01 0.01,-0.01 13.51,-10.05 33.77,-39.86 38.95,-46.07 68.03,-92.09 134.58,-187.59 175.32,-295.31 4.59,-11.6 8.46,-23.46 12.99,-35.08"
         style="fill:#caae43;fill-opacity:1;fill-rule:evenodd;stroke:none"
         id="path2192" />
      <path
         d="m 4856.2729,966.21025 c 4.94,-58.46 1.96,-117.4 -0.76,-175.82 13.91,-10.12 -18.67,-130.571 -25.04,-151.211 -4.98,-15.821 -11.68,-31.047 -18.64,-45.969 -1.75,-3.25 -3.91,-9.488 -6.61,-15.879 0.19,-1.191 0.01,-2.492 -0.61,-3.812 -5.67,-10.45 -11.13,-20.989 -17.35,-31.129 1.68,-10.129 -6.77,-19.45 -10.97,-28.168 -0.47,-5.793 -6.21,-9.68 -9.28,-14.262 -8.3,-11.691 -17.2,-22.949 -26.06,-34.23 4,-6.278 -4.45,-11.79 -7.56,-15.598 -8.91,-10.32 -18.7,-19.793 -29.71,-27.883 -28.17,-23.547 -61.74,-39.16 -96.79,-49.379 -9.91,-2.918 -20.17,-4.601 -30.27,-6.73 -4.94,-0.649 -10.79,-3.789 -15.16,-0.141 -2.9,-0.559 -5.79,-1.141 -8.69,-1.75 -0.76,-1.797 -2.37,-3.309 -4.96,-3.93 -35.23,-5.968 -70.32,-12.23 -106.17,-9.679 -25.01,0.8 -50.62,3.55 -74.09,10.609 -12,4.223 -23.62,9.16 -35.91,12.91 -7.59,4.102 -29.73,7.051 -28.01,17.93 -14.51,8.422 -30.62,13.07 -43.93,23.461 -9.71,2.371 -15.98,12.84 -23.44,19.109 -3.5,4.781 -11.74,6.18 -12.42,12.762 -4.69,4.551 -9.05,8.809 -13.36,13.121 -7.97,-2.371 -23.07,-6.793 -36.77,-9.332 -31.54,-7.5 -65.06,-9.359 -97.34,-7.559 -1.66,0.141 -3.33,0.34 -4.97,0.598 -1.73,0.281 -3.25,1.231 -4.31,2.57 -19.49,3.371 -39.12,6.18 -58.32,11.012 -1.1,0.301 -2.03,0.848 -2.77,1.57 -19.7,-5.089 -80.94,31.039 -93.88,38.028 -7.32,5.64 -20.3,8.082 -22.62,17.961 -6.16,5.25 -19.92,8.281 -17.85,18.461 -18.73,15.769 -36.72,32.39 -54.56,49.148 -2.69,2.813 -6.79,5.41 -6.72,9.723 -5.08,4.457 -10.12,8.949 -15.07,13.547 -2.53,2.363 -5.72,4.851 -6.58,8.281 -14.1,12.25 -26.57,25.789 -39.82,38.84 -3.24,4.359 -9.35,7.902 -12.09,12.761 -3.46,1.719 -6.63,4.27 -9.76,6.207 -8.74,6.09 -17.23,12.59 -25.99,18.653 -18.41,11.179 -39.93,16.469 -58.93,26.84 -18.65,-1.743 -37.75,0.711 -56.37,-2.411 -9.06,-1.589 -18.1,-3.269 -27.12,-5.101 -14.36,-11.09 -29.32,-21.399 -43.56,-32.66 -17.37,-12.86 -25.35,-35.5 -35.74,-53.949 -3.86,-7.36 -4.62,-18.43 -12.44,-22.622 -3.17,-13.218 -6.09,-26.558 -8,-40.027 1.09,-1.582 1.65,-3.59 1.52,-5.633 4.26,-7.418 1.91,-17.179 4.08,-25.418 0.9,-6.718 1.81,-13.429 2.76,-20.148 0.24,-1.652 -0.22,-3.231 -1.12,-4.543 0.23,-1.887 0.48,-3.77 0.73,-5.668 1.93,-3.801 3.31,-7.973 5.24,-11.723 6.82,-10.457 12.37,-22.269 18.77,-32.777 16.35,-22.539 34.97,-29.07 59.27,-40.121 2.81,-1.258 5.65,-2.488 8.47,-3.711 0.11,0.031 0.21,0.062 0.31,0.09 10.49,3.422 21.94,5.711 32,9.492 -24.2,0.121 -51.57,15.91 -55.56,41.309 -4.36,28.332 21.4,53.789 49.44,49.902 31.45,-1.391 49.59,-26.371 66.79,-49.453 6.52,-9.957 16.24,-44.137 5.85,-52.52 -3.9,-29.918 -25.37,-47.027 -52.76,-56.027 -3.05,-8.34 -29.26,-7.57 -37.5,-7.742 -7.28,0.562 -16.31,2.312 -22.91,6.64 -21.14,3.379 -41.02,15.149 -56.38,29.422 -6.4,6.789 -27.81,23.68 -20.05,33.469 -8.04,11.168 -33.48,48.109 -29.77,60.758 -2.57,5.953 -3.06,10.562 -2.37,13.91 -1.57,11.461 -1.73,25.902 -2.69,31.922 -1.66,24.828 0.49,50.558 9.06,73.75 4.9,18.789 9.6,37.801 17.97,55.398 3.86,6.942 12.31,28.25 21.87,33.84 0.77,0.859 1.58,1.652 2.37,2.34 8.83,9.043 18.44,17.422 28.96,24.461 4.54,3.18 9.67,5.73 12.86,10.371 4.65,3.871 14.65,8.961 19.46,4.937 0.24,0.082 0.46,0.172 0.68,0.262 8.22,2.5 26.88,14.91 33.9,8.762 15.67,0.187 31.54,0.117 46.56,-2.082 4.3,6.32 12.28,1.551 17.93,0.019 7.78,-2.558 15.7,-4.621 23.45,-7.25 7.99,-2.629 15.95,-5.32 23.89,-8.07 4.88,-1.809 12.47,-2.848 12.86,-9.269 11.65,-5.989 22.25,-13.5 32.4,-21.61 0.87,-0.269 1.7,-0.73 2.4,-1.39 0.69,-0.782 1.52,-1.622 2.45,-2.528 0.01,0 0.01,-0.012 0.01,-0.012 7.8,-6.421 15.4,-13.109 23.08,-19.601 7.06,-7.32 18.45,-11.508 22.29,-21.449 0.59,-2.168 -0.06,-4.309 -1.4,-5.93 9.34,-8.93 18.82,-17.68 29.08,-25.469 10.28,-8.019 20.01,-16.722 29.97,-25.152 5.12,-5.34 13.26,-8.918 16.22,-15.809 22.26,-14.078 44.86,-26.679 68.1,-38.699 13.11,-7.84 29.02,-12.449 40.36,-22.641 12.72,-3.449 25.53,-6.609 38.54,-8.808 4.15,-0.973 9.29,-0.652 12.24,-4.231 18.6,-1.371 37.06,-2.781 55.69,-1.121 5.7,-0.691 16.59,2.102 23.71,0.5 20,2.059 40.08,3.34 60.09,4.961 5.68,0.02 14.09,1.739 20.96,1.231 -6.86,8.937 -14.07,19.457 -8.21,25.019 -8.51,16.739 -15.19,34.36 -20.85,52.27 -0.33,0.258 -0.67,0.551 -1.01,0.871 -2.4,3.91 -3.02,8.5 -3.23,13.187 -1.53,5.313 -2.99,10.672 -4.32,16.039 -0.45,1.692 -0.15,3.321 0.61,4.711 -1.61,7.321 -2.06,14.911 -3.82,22.153 -3.32,13.019 -2.38,26.84 -0.58,40.047 0.99,14.089 1.73,28.339 5.65,41.992 -2.74,19.969 7.01,39.059 14.24,57.129 3.45,5.92 4.43,16.13 12.27,17.56 2.86,4.63 5.72,9.25 8.67,13.81 0.7,16.39 25.97,26 37.2,35.85 8.36,3.89 26.47,23 34.36,13.82 2.95,1.05 6.02,1.75 8.99,0.92 0.3,-0.1 0.61,-0.19 0.89,-0.34 9.24,2.04 18.74,1.77 28.08,3.08 4.87,0.46 10.97,1.5 15.04,-1.93 24.34,-2.22 49.63,-8.8 68.95,-24.44 1.56,-1.24 2.35,-3.1 2.42,-5.01 8.63,-2.58 20.53,-27.81 24.57,-34.51 4.89,-9.86 24.55,-55.611 17.76,-63.318 0.56,-2.953 1.06,-5.902 1.47,-8.863 8.2,-16.399 1.61,-41.61 -2.16,-58.977 -8.99,-35.684 -26.47,-68.133 -50.08,-95.871 -10.84,-17.02 -25.49,-30.891 -40.41,-44.352 -10.25,-9.238 -20.76,-18.359 -32.08,-26.3 -10,-5.868 -21.04,-20.508 -33.51,-17.45 11.22,-13.73 23.36,-26.808 34.68,-40.039 23.83,-13.48 46.14,-29.179 72.6,-36.84 17.84,-5.351 35.66,-10.761 53.56,-15.96 3.9,-1.098 8.76,-1.969 9.8,-6.598 27.98,-2.75 56.44,-5.832 84.54,-6.68 8.62,7.539 39.22,6.449 51.8,12.02 13.24,3.66 24.66,11.258 37.18,16.66 5.07,1.82 10.58,6.34 16.1,4.578 10.41,5.762 20.7,11.742 31.03,17.641 4.1,1.968 8.23,6.058 13.07,5.05 22.88,15.457 42.41,34.95 64.44,51.469 0.26,5.75 5.21,10.012 8.08,14.711 6.66,9.078 12.62,18.68 19.03,27.938 8.6,12.273 16.65,25.402 24.14,38.589 -2.59,8.122 8.15,21.731 9.23,29.493 5.9,24.531 8.35,49.769 13.55,74.48 1.44,5.5 0.19,14.117 6.9,16.168 1.84,28.941 3.4,57.922 5.24,86.881 1.2,5.04 0.32,14.68 1.65,22.13 -0.5,37.85 -1.75,75.71 -2.79,113.49 -1.67,15.6 -3.63,31.03 -5.65,46.57 -0.02,6.35 -4.27,14.61 0.95,19.7 -4.66,39.95005 4.1,81.63005 18.6,118.46005 14.19,7.87 14.04,-15.41 15.36,-24.08 3.08,-28.63 5.28,-57.34 6.75,-86.09005 3.08,-2.84 4.51,-8.65 4.49,-12.85 z m -455.88,-246.441 c 0.31,7.992 -1.32,16.179 -0.1,24.062 -4.65,10.769 -5.13,23.339 -10.28,33.629 -6.18,10.56 -10.61,21.98 -21.31,28.95 -6.78,6.49 -20.14,13.48 -25.51,22.52 -3.95,1.42 -7.87,3.38 -11.47,4.22 -7.47,1.63 -14.99,2.85 -22.59,3.78 -11.1,-0.86 -22.24,-1.35 -33.33,-2.15 -3.95,-0.06 -8.29,-1.25 -11.98,0.6 -29.4,-9.32 -37.61,-27.53 -56.73,-49.18 -4.65,-4.41 -5.24,-12.99 -7.07,-18.28 -3.21,-12.84 -6.13,-25.741 -8.36,-38.78 -4.7,-33.481 0.84,-66.289 3.9,-99.59 1.13,-12.781 2.81,-25.352 4.37,-37.899 3.45,-7.66 7.49,-15.031 11.48,-22.511 10,-19.61 17.8,-40.379 28.84,-59.379 -0.87,3.308 -0.58,6.578 2.41,9.289 1.61,1.519 3.78,1.871 5.88,2.23 8.94,2.668 16.81,8.012 24.82,12.641 20.86,12.668 40.6,27.449 57.52,45.07 11.78,9.551 23.07,21.551 31.8,33.528 14.32,19.632 21.7,44.031 30.36,66.461 4.56,13.179 4.64,27.25 7.35,40.789 z m -441.26,-228.348 c -0.29,0.109 -0.56,0.211 -0.83,0.309 0.04,-0.149 0.07,-0.321 0.11,-0.481 0.03,-0.141 0.06,-0.289 0.08,-0.43 0.17,-0.05 0.33,-0.097 0.5,-0.148 0.03,0.25 0.08,0.508 0.14,0.75 v 0"
         style="fill:#caae43;fill-opacity:1;fill-rule:evenodd;stroke:none"
         id="path2194" />
      <path
         d="m 3550.1629,346.69025 c 3.79,-0.421 7.6,-0.621 11.41,-0.621 19.38,0 38.8,5.321 55.7,14.692 12.75,-4.129 28.55,16.34 34.28,26.23 4.23,8.68 15.83,36.617 6.79,43.399 -1,13.179 -1.68,27.242 -7.26,39.379 -1.5,2.242 -4.23,3.16 -6.77,2.8 2.07,-9.089 2.45,-18.539 1.9,-27.828 -0.47,-7.722 -2.18,-15.14 -5.21,-22.269 -2.87,-6.723 -6.44,-13.16 -10.99,-18.922 -4.38,-5.551 -9.38,-10.59 -15.09,-14.758 -8.32,-6.082 -18.25,-10.082 -28.29,-12.301 -4.9,-1.09 -9.88,-1.801 -14.88,-2.152 -2.69,-0.199 -5.4,-0.25 -8.1,-0.25 -2.44,0 -4.88,0.043 -7.31,0.07 -4.96,0.082 -9.94,0.313 -14.88,0.723 -5.09,0.41 -10.23,0.84 -15.25,1.879 -7.8,1.621 -15.24,4.238 -22.72,6.91 -7.3,2.578 -14.57,5.238 -21.38,8.93 0.69,-1.082 1.19,-2.301 1.47,-3.61 0.04,-0.199 0.09,-0.383 0.15,-0.57 0.1,-0.262 0.22,-0.539 0.35,-0.801 0.27,-0.488 0.55,-0.969 0.87,-1.43 0.48,-0.679 0.97,-1.32 1.48,-1.968 7.03,-4.422 15.67,-8.043 19.28,-9.981 -2.28,-0.961 -3.61,-3 -4.01,-5.179 1.43,-1.122 2.89,-2.172 4.38,-3.231 4.74,-3.012 9.49,-5.91 14.52,-8.43 5.21,-2.359 10.64,-4.179 16.02,-6.101 4.06,-1.43 8.14,-2.82 12.23,-4.192 0.43,-0.128 0.87,-0.277 1.31,-0.418 z m -88.23,254.879 c -0.04,-0.48 -0.09,-0.98 -0.14,-1.468 0.09,0.918 0.17,1.851 0.26,2.769 1.24,11.121 3.72,21.949 6.56,32.762 1.96,6.988 4.31,13.879 7,20.598 1.63,3.761 3.42,7.429 5.35,11.031 16.08,23.719 38.34,43.429 64,56.09 7.27,1.328 14.61,2.371 21.95,3.308 7.09,0.891 14.16,1.723 21.29,2.27 3.4,0.152 6.79,0.14 10.19,0 6.09,-0.489 12.14,-1.309 18.2,-2.188 6.14,-0.89 12.29,-1.793 18.4,-2.941 3.46,-0.719 6.93,-1.531 10.32,-2.59 7.23,-2.711 14.24,-5.98 21.15,-9.422 4.42,-2.277 8.74,-4.687 12.95,-7.308 -0.64,-0.399 -1.36,-0.719 -2.16,-0.891 -9.95,-0.059 -19.71,4.301 -29.48,6.141 -54.67,12.3 -118.82,-4.668 -151.66,-52.008 -9.39,-13.524 -13.82,-29.68 -19.16,-45.063 -0.88,-2.719 -3.26,-4.64 -5.97,-4.988 -1.55,-7.031 -3.06,-14.152 -3.21,-21.371 0.19,-2.199 0.5,-4.399 -0.81,-6.371 -1.2,-2.149 -3.4,-3.219 -5.65,-3.297 -0.29,8.308 -0.07,16.648 0.62,24.937 z m 791.67,-100.269 h 0.01 z m 0.27,-5.719 c -0.96,2.309 -0.94,4.168 -0.28,5.699 0.39,0.059 0.78,0.141 1.16,0.239 -0.1,-0.02 -0.18,-0.039 -0.28,-0.047 1.51,0.34 2.91,0.988 4.11,1.91 0.49,0.25 0.98,0.476 1.47,0.719 4.47,2.019 8.94,3.98 13.22,6.359 2.18,1.23 4.36,2.488 6.52,3.789 2.05,0.91 4.08,1.852 6.1,2.801 7.22,3.39 14.17,7.32 21.11,11.219 6.39,3.601 12.81,7.191 18.92,11.242 16.99,11.211 33.68,22.89 48.77,36.57 6.08,5.508 11.7,11.5 17.2,17.578 -26.77,-43.879 -64.12,-81.969 -111.06,-102.89 0.37,-9.207 -11.52,-8.649 -18.03,-9.137 -0.59,-0.102 -1.17,-0.16 -1.75,-0.16 -7.24,0 -13.56,8.32 -7.18,14.109 z m -118.1,-1.812 c 0,0.031 -0.01,0.062 -0.01,0.082 0.38,-0.891 0.91,-1.692 1.54,-2.371 -0.05,0.062 -0.11,0.109 -0.17,0.152 0.01,-0.012 0.03,-0.02 0.04,-0.043 -0.18,0.211 -0.37,0.441 -0.55,0.641 -0.14,0.199 -0.29,0.41 -0.43,0.621 0.02,-0.02 0.04,-0.039 0.05,-0.059 -0.18,0.328 -0.35,0.648 -0.47,0.977 z m 262.88,231.031 c -0.51,1.012 -1,2.051 -1.46,3.09 -0.35,6.261 -1.21,12.48 -2.24,18.66 -1.36,8.19 -3.07,16.3 -6.07,24.06 -1.51,3.94 -3.28,7.79 -5.48,11.41 -0.95,1.57 -2.01,3.26 -3.21,4.85 -2.31,5.19 -5.21,10.1 -9.03,14.54 -16.57,16.1 -37.26,30.26 -59.18,36.76 -8.95,1.77 -18,0.39 -26.98,-0.99 -6.94,-1.06 -13.83,-2.12 -20.61,-1.74 -27.73,-11.26 -47.17,-37.54 -57.35,-64.75 -1.21,-2.61 -0.41,-5.65 -2.32,-7.96 -3.48,-4.95 -12.24,-2.75 -12.73,3.39 9.39,51.27 57.8,90.4 109.55,92.32 31.33,5.04 59.91,-12.05 77.93,-36.62 38.42,-42.53 43.85,-108.661 18.7,-159.348 -4.77,-6.602 -10.12,-27.153 -19.52,-27.153 -0.28,0 -0.55,0.012 -0.83,0.051 0.42,0.789 0.84,1.59 1.23,2.391 4.58,9.519 8.34,19.597 10.57,29.937 1.44,6.641 2.51,13.391 3.24,20.172 0.69,2.09 1.33,4.211 1.92,6.34 0.99,1.449 1.62,3.141 1.76,4.969 0.08,1.09 0.14,2.179 0.21,3.269 1.49,7.282 2.33,14.692 2.55,22.121 -0.21,0.071 -0.43,0.153 -0.65,0.231 z m -39.17,1247.36005 c 4.67,-3.96 12.62,0.57 11.44,6.62 -1.13,4.45 -3.31,8.59 -4.69,12.96 -0.38,1.12 -0.75,2.24 -1.11,3.36 v 0.01 c 2.52,8.39 -5.61,25.47 -5.61,32.96 -4.53,21.95 -7,46.48 -6.65,69.49 -1.22,28.04 3.34,55.65 14.17,81.22 v 0.01 c 0.6,1.19 1.22,2.4 1.85,3.58 20.97,39.55 46.67,77.87 84.88,102.81 4.46,3.99 14.49,6.9 15.78,12.94 14.41,8.14 29.82,14.6 46.02,19.09 17.06,2.98 34.17,2.12 51.34,-0.59 7.98,-1.49 22.95,-12.45 25.18,1.57 -3.85,16.19 -56.96,16.04 -71.69,14.2 -79.22,-15.51 -139.94,-80.83 -169.04,-154.38 -5.29,-12.39 -9.74,-25.09 -13.29,-37.93 -12.63,-54.88 -0.73,-112.34 18.89,-164.14 0.02,-0.02 0.06,-0.13 0.11,-0.23 -0.05,0.12 -0.1,0.25 -0.14,0.38 -0.06,0.26 -0.11,0.53 -0.17,0.78 0.01,-0.01 0.01,-0.02 0.01,-0.03 0.37,-1.88 1.17,-3.49 2.72,-4.68 z m 41.26,-174.07 c -29.65,12.75 -61.89,14.97 -92.73,23.29 -27,7.56 -51.45,22.6 -70.42,43.26 -45.51,45.55 -21.05,112.4 -14.32,167.7 1.8,26.54 -4.47,53.83 -20.61,75.3 -1.47,2.2 -4.54,3.71 -7.24,3.16 -18.87,-4.17 18.66,-37.49 1.93,-84 -6.49,-18.12 -18.59,-33.58 -26.54,-51.07 -12.95,-27.16 -14.67,-60.48 -4.32,-88.75 14.19,-28.81 40.65,-51.04 70.18,-63.05 11.7,-4.25 29.92,-12.49 41.62,-6.65 37.25,-18.06 79.35,-16.1 117.44,-32.6 9.83,-4.24 15.03,10.72 5.01,13.41 z m 368.79,-632.94 c -20.63,79.08 -42.72,158.48 -76.5,233.15 -21.65,43.89 -40.1,90 -66.12,131.49 -3.65,9.66 -26.54,29.19 -18.97,37.6 -38.14,49.84 -111.07,143.1 -177.75,167.6 -0.71,-0.52 -1.57,-0.94 -2.6,-1.22 -8.18,0.33 -16.32,3.45 -24.36,5.86 -2.8,-0.48 -5.08,0.32 -6.58,1.76 -1.25,0.27 -2.5,0.51 -3.74,0.68 -22.88,3.49 -47.2,9.32 -69.89,2.22 -22.14,-8.36 -41.24,-24.83 -52.01,-45.76 -12.16,-28.72 -14.45,-60.86 -30.19,-88.38 -11.61,-25.45 -33.03,-45.16 -58.01,-57.26 -7.49,-3.48 -33.78,-17.34 -39.93,-8.44 -8.52,-2.55 -20.01,-5.74 -21.18,4.49 0.47,10.2 13.04,6.74 19.68,9.73 35.48,11.95 51.28,50.11 63.27,82.54 6.29,21.06 9.51,43.22 19.85,62.9 32.4,68.9 125.22,82.89 188.99,51.9 0.87,-0.54 1.87,-1.05 2.91,-1.58 1.67,-0.31 3.44,-0.72 5.33,-1.25 79.93,-23.96 155,-120.77 204.05,-186.02 42.54,-61.31 70.36,-131.26 100.31,-199.22 18.52,-47.65 37.69,-95.3 51.55,-144.56 3.06,-11.71 15.96,-73.87 -8.11,-58.23 z m -212.79,-811.56905 z m 0.3,0.078 z m 0.07,0.031 z m 20.91,5.93 c -0.01,-0.012 -0.02,-0.012 -0.03,-0.012 0.01,0.012 0.02,0.012 0.03,0.012 z m -21.23,-6.019 z m 21.34,6.05 c -0.03,-0.011 -0.07,-0.019 -0.11,-0.031 0.04,0.012 0.08,0.02 0.11,0.031 z m -21.48,-6.089 0.08,0.019 v 0 0 0 0 0 0 0 0 0 h -0.01 v 0 h -0.01 z m 0,0 0.47,0.128 v 0 l 0.1,0.02 c 0.17,0.039 0.33,0.082 0.5,0.129 2.12,0.582 4.24,1.141 6.36,1.711 3.34,0.969 6.68,1.93 10.03,2.91 1.3,0.391 2.61,0.77 3.91,1.172 -0.01,0 -0.01,0 -0.01,0 3.61,1.058 7.19,2.129 10.8,3.207 3.73,2.371 5.02,7.441 3.01,10.883 22.36,4.98 43.95,12.398 64.53,21.968 0.59,-0.16 1.23,-0.242 1.93,-0.242 10.71,0 32.71,17.973 39.41,21.981 8.68,5.441 16.64,11.57 24,18.261 1.53,1.18 3.06,2.379 4.57,3.602 1.2,0.898 1.97,1.949 2.39,3.059 26.9,27.101 45.44,61.808 62.47,96.269 68.78,128.828 77.44,281.12 63.29,424.06 -1.35,7.82 -4.87,58.04005 -11.25,83.44005 1.72,3.98 3.38,7.98 4.77,12.07 1.61,5.85 -4.67,11.42 -10.18,8.78 2.76,7.38 8.57,22.86 -5.15,21.29 -6.42,-1.01 -13.66,-24.73 -12.66,-30.44 -2.18,-10.8 -15.75,-48.93 -6.62,-55.48 -2.92,-12.13005 -4.88,-24.46005 -6.36,-36.83005 -0.52,-3.87 2.3,-7.51 6.16,-8.01 12.28,-1.22 8.52,23.96 12.08,32.37 1.81,9.6 4.81,20.52005 8.04,30.52005 0.75,-4.49 1.41,-9.01 1.97,-13.54 3.54,-28.76005 6.37,-57.62005 8.53,-86.50005 6.33,-99.49 -0.23,-201.66 -31.46,-296.808 -20.76,-57.203 -47.32,-113.191 -84.39,-161.773 -7.8,-9.168 -17.37,-16.868 -27.18,-24.219 -46.87,-33.32 -102.47,-49.699 -158.66,-61.801 -16.98,-3.039 -33.99,-5.867 -50.95,-8.98 -3.88,0.16 -7.75,0.41 -11.62,0.632 -2.41,0.129 -4.81,0.461 -7.2,0.719 -2.81,0.309 -5.67,0.5 -8.48,0.961 -3.35,0.551 -6.7,1.109 -10.05,1.668 -2.76,0.453 -5.48,1.121 -8.21,1.711 -1.8,0.41 -3.6,0.832 -5.39,1.262 -81.75,10.758 -159.73,46.488 -216.09,108.437 -38.43,38.801 -61.36,92.492 -69.15,146.18 -0.4,4.992 -0.74,10.012 -1.01,15.043 -0.33,2.66 -0.62,5.328 -0.93,7.988 -0.69,6.301 -1.2,12.61 -1.54,18.942 -0.6,4.179 -1.18,8.378 -1.75,12.57 -0.75,5.566 -1.21,11.16 -1.64,16.769 -0.47,6.008 -0.29,12.071 -0.18,18.09 0.04,3.02 0.41,6.051 0.61,9.059 0.21,2.949 0.61,5.89 0.95,8.84 0.59,5.39 1.45,10.75 2.48,16.07 0.91,4.76 2.17,9.42 3.63,14.02 0.08,0.72 0.17,1.45 0.26,2.17 0.39,3.22 0.83,6.4 1.36,9.56 -9.05,-6.2 -11.83,-29.668 -13.54,-38.699 -6.1,-57.66 -10.05,-118.09 12.55,-172.879 -8.57,-15.363 18.12,-52.082 26.15,-66.973 -1.69,0.801 -3.63,0.891 -5.94,-0.07 -3,8.641 -15.71,9.223 -15.75,-1.117 -2.23,4.636 -8.55,6.918 -12.49,2.949 -3.07,4.66 -10.53,3.961 -12.64,-1.25 -0.07,-1.813 0.01,-3.672 0.27,-5.57 -0.05,0.109 -0.09,0.211 -0.13,0.308 0.04,-0.129 0.09,-0.258 0.14,-0.39 1.25,-9.348 6.29,-19.559 12.78,-28.547 -18.87,-4.332 -38.25,-6.422 -57.59,-6.071 -86.8,0.36 -174.35,33.348 -235.71,96.141 -10.63,10.316 -21.44,20.418 -31.81,30.988 -2.22,2.27 -5.86,2.34 -8.48,0.789 0.61,-0.629 1.22,-1.269 1.83,-1.91 8,-8.277 15.98,-16.578 24.01,-24.82 9.59,-9.867 19.19,-19.707 28.85,-29.481 0.65,-0.476 1.29,-0.968 1.93,-1.457 9.26,-7.043 18.56,-14 27.91,-20.902 7.81,-5.758 15.66,-11.469 23.61,-17.051 0.99,-0.59 1.98,-1.168 2.97,-1.758 8.52,-5 17.12,-9.832 25.73,-14.66 4.19,-2.34 8.39,-4.66 12.61,-6.968 35.1,-13.383 72.39,-21.082 110.09,-22.493 1.73,-0.14 3.45,-0.25 5.18,-0.347 1.37,-1.922 3.72,-3.172 7,-2.762 12.51,0.551 56.52,-1.719 77.49,5.84 1.39,-1.16 2.79,-2.219 4.16,-3.18 1.74,0.602 3.48,1.18 5.22,1.77 2.8,0.941 5.6,1.89 8.4,2.851 0.01,0.051 0.02,0.11 0.03,0.16 0.34,0.051 0.68,0.11 1.02,0.188 0.44,0.152 0.88,0.301 1.33,0.453 0.49,0.219 0.95,0.488 1.4,0.828 0.83,0.672 1.54,1.422 2.1,2.27 0.79,-0.559 1.65,-0.918 2.54,-1.11 1.14,0.36 2.29,0.739 3.44,1.09 -0.01,-0.031 -0.02,-0.051 -0.03,-0.078 0.94,0.27 1.92,0.418 2.9,0.449 1.27,0.969 2.26,2.36 2.68,4.051 0.86,5.348 -1.16,11.07 -3.29,15.906 -1.6,2.114 -2.95,5.731 -4.39,9.602 11.86,-17.449 26.5,-32.731 42.28,-46.899 1.06,-5.632 7.23,-7.972 11.39,-11.109 14.35,-10.434 28.47,-21.473 45.02,-28.352 54.61,-35.25 121.12,-51.582 186.1,-51.808 23.04,0.219 46.6,1.437 69.5,5.519 2.38,0.547 4.75,1.118 7.11,1.7 0.92,0.238 1.83,0.48 2.76,0.73 -0.02,0 -0.04,-0.012 -0.06,-0.012 l 0.29,0.082 -0.04,-0.011 0.17,0.039 h 0.01 l 0.01,0.011 h 0.01 v 0 h 0.01 l 0.01,0.012 h 0.01 l 0.37,0.098 z m 0.16,0.039 h 0.01 z m -0.03,-0.012 0.01,0.012 h 0.01 l -0.02,-0.012 0.01,0.012 z m 0.04,0.012 0.01,0.007 c 0,0 -0.01,0 -0.02,-0.007 z m 0.24,0.07 z m 0,0 c -0.01,-0.012 -0.02,-0.012 -0.02,-0.012 0,0 0.01,0 0.02,0.012 z m 0.02,0.008 z m 0.03,0.011 v 0 l -0.02,-0.011 -0.01,-0.008 h -0.02 v 0 0 0 h -0.01 v 0 l -0.01,-0.012 v 0 l -0.05,-0.008 h -0.01 v 0 h 0.01 l 0.05,0.008 c -0.02,0 -0.04,0 -0.06,-0.008 -0.05,-0.019 -0.1,-0.031 -0.14,-0.043 l -0.05,-0.007 h -0.01 v -0.012 h -0.01 z m 0,0 h 0.01 v 0 z m -0.02,-0.011 h 0.01 -0.01 c 0,0 0,0 -0.01,0 v 0 0 0 z m -0.3,-0.078 h 0.02 l 0.02,0.007 z m 0.04,0.007 v 0 l 0.03,0.012 v 0 l -0.03,-0.012 c 0,-0.007 -0.01,-0.007 -0.01,-0.007 h -0.01 c -0.01,0 -0.03,-0.012 -0.04,-0.012 l 0.02,0.012 -0.02,-0.012 v 0 h -0.01 -0.01 l -0.01,-0.008 v 0 0 h -0.01 v 0 0 0 0 h -0.01 v 0 0 l -0.07,-0.019 c 0.03,0.007 0.04,0.007 0.07,0.019 v 0 0 0 h 0.01 v 0 0 h -0.01 v 0 z m 18.54,1736.71205 c -24.58,2.87 -51.47,15.66 -58.01,41.51 -3.54,17.65 -10.59,38.02 -3.97,55.43 0.88,1.2 2.01,2.01 3.24,2.45 0.31,2.83 0.77,5.64 1.38,8.41 1.62,20.26 25.14,13.33 14.68,0.27 -8.02,-31.31 6.28,-67.87 35.2,-83.17 4.21,-2.29 8.4,-3.92 12.58,-4.96 13.14,-0.08 27.55,4.41 42.04,14.1 15.85,13.76 25.87,31.37 35.23,49.59 0.46,0.4 0.92,0.74 1.38,1.02 1.09,5.4 2.75,10.32 9.05,9.94 3.72,-0.5 6.83,-4.22 6.11,-8.05 -5.99,-33.84 -30.81,-72.13 -65.32,-80.48 -10.34,-4.71 -21.59,-7.07 -33.59,-6.06 z m -978.52,-1671.63005 c -37.04,0.18 -61.5,31.758 -57.44,67.629 0.03,0.371 0.07,0.762 0.1,1.161 0.21,0.39 0.44,0.781 0.67,1.16 2.67,4 5.51,7.832 8.54,11.57 1.92,2.09 3.9,4.109 5.93,6.09 -1.59,-5.442 -2.05,-11.078 -2.03,-16.75 0.02,-3.93 0.27,-7.949 1.36,-11.731 0.84,-2.867 1.82,-5.777 3.02,-8.527 2.16,-4.922 4.68,-9.742 7.65,-14.211 5.97,-8.949 14.69,-15.93 23.63,-21.723 6.28,-4.078 13.51,-9.168 21.26,-9.578 -0.92,-3.101 -4.14,-5.64 -8.79,-5.64 -1.21,0 -2.51,0.16 -3.9,0.55 v 0"
         style="fill:#b1911e;fill-opacity:1;fill-rule:evenodd;stroke:none"
         id="path2196" />
      <path
         d="m 4986.8729,1465.3903 c 2.2,-72.91 -12.41,-148.7 -50.14,-211.75 -11.16,-18.68 -25.76,-35.86 -38.87,-53.02 -16.34,-21.16 -30.91,-43.91 -46.02,-65.94 -11.74,-20.04 -24.41,-40.04 -30.81,-62.21 -4.19,-13.99 -6.35,-28.33 -7.84,-42.78 2.07,-8.32 -9.38,-13.69 -13.55,-5.46 -3.46,22.13 -5.22,44.76 -9.27,66.94 -0.7,0.76 -1.23,1.72 -1.57,2.92 -8.22,40.94 -8.27,83.37 -2.79,124.7 2.87,11.58 0.93,26.41 8.64,35.86 5.77,15.87 13.36,31.02 20.02,46.53 6.42,27.59 22.21,53.11 31.35,80.16 1.28,18.02 8.88,36.87 12.08,54.15 8.18,47.75 7.41,98.79 -12.21,143.65 -0.58,1.35 -0.73,2.64 -0.54,3.79 -2.24,3.15 -3.56,7.78 -4.75,11 -3.37,8 -6.86,15.98 -9.99,24.22 -9.45,23.53 -19,45.34 -35.47,64.47 -14.04,26.24 -41.2,32.76 -65.89,45.3 -25.06,11.7 -48.6,26.09 -68.18,45.84 -19.08,17.07 -32.08,38.99 -40.86,62.87 -2,8.54 -12.92,31.36 1.5,32.3 7.67,-1.29 10.57,-10.39 16.43,-14.76 23.99,-21.35 53.62,-33.86 82.8,-46.26 38.01,-10.49 76.94,-19.3 108.5,-44.34 22.82,-18.54 44.38,-39.6 63.64,-61.77 25.33,-31.17 44.71,-67.4 57.43,-105.48 7.12,-24.13 19.8,-45.08 26.52,-69.1 3.82,-15.98 4.66,-32.47 6.26,-48.84 0.34,-0.21 0.65,-0.47 0.96,-0.77 3.43,-3.08 1.89,-8.14 2.62,-12.22"
         style="fill:#efd8b0;fill-opacity:1;fill-rule:evenodd;stroke:none"
         id="path2198" />
      <path
         d="m 4789.4229,802.77025 c 3.58,-39.76 10.13,-78.251 5.81,-117.951 -1.83,-20.289 -3.91,-40.507 -3.37,-60.91 -0.69,-8.429 1.82,-29.59 -12.55,-22.527 -5.7,5.918 -4.63,15.887 -6.82,23.348 -2.77,14.312 -5.96,28.589 -10.4,42.468 -8.58,26.434 -24.04,49.852 -40.64,71.871 -17.63,26.671 -37.86,42.141 -66.76,55.171 -45.73,26.99 -97.12,40.44 -145.18,61.35 -49.67,26.45 -103.78,63.1 -131.29,113.39 -0.31,0.76 -0.71,1.55 -1.13,2.39 -8.74,13.03 -14.91,28 -20.25,42.55005 -18.42,31.39 -25.15,68.46 -28.96,104.28 0.05,-0.28 0.11,-0.57 0.17,-0.83 -4.9,27.2 -7.22,54.83 -8.22,82.44 -1.17,8.56 11.89,11.17 14,2.69 6.63,-18.56 16.6,-35.82 26.03,-53.07 23.04,-40.13 43.6,-68.37 71.27,-92.18 2.19,0.78 4.32,0.1 6.35,-1.07 7.38,2.38 16.92,-10.41 23.58,-13.12 24.33,-16.23 52.35,-25.48 79.77,-35.05 22.01,-7.05 45.18,-8.89005 67.49,-14.80005 40.55,-8.35 79.31,-28.03 109.6,-55.88 1.43,-1.78 4.13,-4.32 7.15,-7.24 2.23,0.16 4.51,-0.67 5.91,-2.73 6.6,-8.56 13.89,-16.65 19.5,-25.95 0.03,-0.04 0.06,-0.1 0.09,-0.15 0.01,-0.01 0.01,-0.02 0.02,-0.03 21.38,-29.93 36.67,-60.01 38.83,-98.46"
         style="fill:#efd8b0;fill-opacity:1;fill-rule:evenodd;stroke:none"
         id="path2200" />
      <path
         d="m 4851.9229,1663.3403 c 40.78,-50.42 67.6,-121.22 66.06,-186.26 -2.13,-25.2 -5.52,-50.38 -10.6,-75.17 -9.05,-30.19 -20.92,-59.54 -30.84,-89.5 -13.26,-31.57 -31.06,-61.12 -43.18,-93.25 -10.97,-30.49 -29.54,-59.39 -32.67,-92.11 -1.92,-9.71 5.86,-34.55 -11.1,-30.23 -9.06,6.77 -6.36,36.38 -8.1,47.94 0.3,56.04 7.4,114.22 34.39,164.13 30.8,58.3 53.51,123.38 48.59,190.13 -1.81,17.07 -5.95,33.83 -9.22,50.66 -0.44,6.03 -5.3,12.29 -2.77,18.11 -1.49,5.19 -2.92,10.41 -4.52,15.57 -14.45,23.53 -19.01,53.38 -36.26,75.85 -5.85,7.76 -11.36,15.79 -17.69,23.16 -3.5,3.76 -8.35,9.57 -4.65,14.69 10.34,9.56 25.59,-4.88 35.61,-9.18 8.88,-4.55 33.21,-11.11 26.95,-24.54"
         style="fill:#ccb489;fill-opacity:1;fill-rule:evenodd;stroke:none"
         id="path2202" />
      <path
         d="m 4893.1429,1543.3503 c -1.33,1.56 -1.78,3.69 -2.1,5.64 -0.12,0.7 -0.21,1.39 -0.3,2.1 -12.23,2.79 -0.56,45.28 -29.81,77.5 -9.85,9.47 0.29,22.81 10.68,12.36 13.02,-14.83 20.31,-34.55 26.99,-52.94 3.36,-12.19 5.12,-24.7 6.63,-37.21 3.39,-7.31 -6.98,-13.88 -12.09,-7.45"
         style="fill:#ccb489;fill-opacity:1;fill-rule:evenodd;stroke:none"
         id="path2204" />
      <path
         d="m 4794.0229,644.15925 c -0.19,-10.148 1.78,-53.609 -16.32,-38.14 -7.21,32.711 -14.33,66.839 -31.44,96.261 -23.87,38.891 -56.15,73.44 -95.19,97.2 -42.94,20.2 -87.98,31.76 -130.62,52.4 -33.84,13.63 -62.94,36.25 -90.63,59.56 -7.84,7.01 -15.65,14.32 -22.56,22.31 -1.12,0.19 -2.23,0.69 -3.23,1.57 -27.04,27.25 -44.67,63.29 -56.43,99.37005 -13.21,23.17 -19.09,55.01 -20.46,81.45 -1.07,9.67 -7.01,20.56 -2.81,29.94 -1.87,12.65 -2.89,25.32 -4.23,38.06 0.23,6.84 -5.33,18.06 4.08,20.66 3.71,0.79 7.81,-1.66 8.48,-5.49 2.17,-13.85 2.8,-27.89 4.66,-41.79 1.45,-19.1 10.27,-35.87 15.36,-54.05 8.79,-8.64 9.1,-23.27 15.82,-33.62 10.12,-23.55 29.07,-40.94 44.78,-60.68 1.83,-1.74 3.66,-3.34 5.52,-4.23 26.31,-19.57005 53.25,-38.64005 82.18,-54.17005 27.87,-14.62 58.4,-22.91 87.68,-34.14 46.17,-20.34 90.39,-47.44 126.83,-82.51 31.44,-28.77 46.45,-69.22 57.13,-109.43 6.17,-27.57 17.99,-52.66 21.4,-80.531"
         style="fill:#ccb489;fill-opacity:1;fill-rule:evenodd;stroke:none"
         id="path2206" />
      <path
         d="m 4702.6129,846.69025 c -26.17,31.35 -60.76,53.74 -97.82,70.05 -26.53,10.81 -54.61,17.54 -80.83,29.17 -46.43,20.31 -91.01,47.14 -125.37,84.73005 -5.25,5.07 -10.05,10.61 -14.83,16.11 -3.37,4.02 -1.19,8.79 2.4,10.77 0.91,-1.07 1.83,-2.13 2.77,-3.16 5.16,-5.63 10.85,-10.75 16.75,-15.61 1.8,-1.8 3.62,-3.59 5.47,-5.35 7.65,-7.28 16,-13.88 24.45,-20.23 8.84,-6.65 18.4,-12.39 27.9,-18.07005 -0.07,0.04 -0.14,0.08 -0.19,0.12 9.42,-5.63 19.04,-10.81 29,-15.47 9.86,-4.61 20.25,-7.95 30.65,-11.12 -0.04,0.01 -0.1,0.02 -0.15,0.04 11.2,-3.42 22.59,-6.11 33.82,-9.45 9.8,-2.92 19.69,-5.6 29.41,-8.84 11.42,-4 22.59,-8.64 33.55,-13.75 5.45,-2.6 10.87,-5.28 16.17,-8.2 6.33,-3.7 12.46,-7.63 18.39,-11.95 9.27,-7.1 18.23,-14.55 26.69,-22.63 4.17,-4.08 8.32,-8.16 12.4,-12.34 0.67,-0.69 1.42,-1.28 2.21,-1.76 8.08,-8.53 16.55,-17.31 20.16,-28.22 0.16,-4.47 -3.63,-7.34 -7.48,-7.34 -2,0 -4.01,0.77 -5.52,2.5 z m 165.89,821.49005 c -1.93,1.24 -3.88,2.47 -5.83,3.67 -1.87,-0.28 -3.85,0.14 -5.36,1.41 -2.27,1.93 -4.55,3.85 -6.87,5.77 -31.3,17.55 -64.6,30.07 -98.96,40.68 -28.11,8.77 -52.58,25.79 -76.89,41.89 -12.11,8.06 -61.12,59.1 -50.81,73.64 -5.88,9.79 -11.93,21.07 -10.74,27.97 0.16,0.4 0.34,0.77 0.56,1.12 -0.61,3.56 -0.59,6.96 0.43,9.99 1.48,2.23 3.89,3.56 6.38,3.52 -0.15,-0.83 -0.19,-1.68 -0.1,-2.55 0.28,-2.87 1.09,-5.65 2.15,-8.33 0.57,-0.22 1.11,-0.51 1.61,-0.88 3.56,0.17 7.29,-2.06 7.73,-7.1 9.45,-30.19 33.55,-51.6 58.75,-69.11 17.46,-13.17 35.34,-25.77 55.04,-35.42 25.25,-11.01 50.88,-21.37 74.43,-35.82 13.53,-7.77 25.88,-17.15 37.62,-27.39 3.71,-3.22 10.45,-6.77 11.15,-11.64 3.42,-3.44 6.76,-6.97 10.08,-10.51 -1.42,-1.59 -3.55,-2.55 -5.74,-2.55 -1.59,0 -3.2,0.51 -4.63,1.64 v 0"
         style="fill:#fbefd6;fill-opacity:1;fill-rule:evenodd;stroke:none"
         id="path2208" />
      <path
         d="m 4128.3029,516.69825 c 9.09,-1.508 6.78,-15.679 -2.38,-14.09 -25.75,4.633 -50.64,13.192 -74.55,23.692 -14.83,6.5 -32.57,11.18 -44.3,22.371 -11.11,6.969 -21.98,13.059 -30.64,22.141 -3.36,2.839 -8.77,4.73 -9.51,9.507 -27.69,20.282 -48.74,50.172 -57.24,83.563 -5.55,19.058 -12.97,36.328 -13.6,56.226 0.34,5.762 -1.99,22.75 -1.43,36.592 -8.53,11.58 17.4,57.25 19.81,67.98 8.46,17.73 15.82,36.17 18.72,55.7 0.42,19.39 -2.69,55.6 -15.55,73.92 -1.29,1.3 -2.45,2.69 -3.42,4.18 0,0 -0.01,0 -0.01,0.01 -0.97,1.04 -2.02,1.96 -3.11,2.79 -8.2,3.19 -3.58,16.23 4.85,13.4 5.12,-2.79 9.26,-6.45 12.62,-10.7 5.74,-4.93 12,-9.02 18.65,-12.71 3.93,-2.71 16.24,-9.64 27.55,-17.48 1.43,-0.02 2.91,-0.55 4.3,-1.74 57.1,-39.6 46.84,-113.51 -6.5,-150.98 -6.18,-3.87 -15.74,-17.36 -23.01,-14.26 -1.33,-1.66 -2.63,-3.33 -3.9,-5.03 -4.04,-3.86 -7.44,-13.191 -12.48,-17 -5.04,-16.269 -7.3,-33.851 -7.8,-50.609 3.98,-15.359 11.34,-30.879 11.31,-46.813 10,-20.519 28.25,-36.238 42.13,-54.289 27.61,-26.64 62.04,-46.089 97.15,-61.168 17.01,-6.461 34.58,-11.3 52.34,-15.203"
         style="fill:#ccb475;fill-opacity:1;fill-rule:evenodd;stroke:none"
         id="path2210" />
      <path
         d="m 3887.2529,688.80025 c -10.23,9.441 -17.86,21.012 -25.43,32.582 -14.06,21.558 -27.19,44.228 -34.49,69.048 -1.04,8.1 -9.46,25.76 -0.39,30.56 5.51,2.77 12.19,-3.14 10.3,-8.89 4.39,-29.41 18.85,-55.34 34.6,-79.941 7.69,-11.379 14.72,-23.34 24.92,-32.699 6.93,-6.23 -2.58,-16.898 -9.51,-10.66"
         style="fill:#ccb475;fill-opacity:1;fill-rule:evenodd;stroke:none"
         id="path2212" />
      <path
         d="m 3886.1029,675.14025 c -43.13,4.23 -123.53,93.66 -136.52,134.63 -3.93,8.42 8.94,14.58 12.91,6.11 17.59,-45.1 66.19,-94.799 107.11,-120.26 4.57,-2.711 9.49,-4.949 14.75,-5.89 4.78,0.039 10,-2.61 9.48,-8.098 -0.32,-3.793 -3.91,-6.961 -7.73,-6.492"
         style="fill:#ccb475;fill-opacity:1;fill-rule:evenodd;stroke:none"
         id="path2214" />
      <path
         d="m 3866.8129,873.21025 c 4.75,-14.79 0.73,-31.35 -7.61,-44.1 -7.55,-11.7 -24.94,-20.18 -34.15,-5.46 -2.26,-5.39 -5.95,-12.03 -12.88,-10.22 -28.42,4.41 -34.77,65.94 -15.88,62.19 15.71,22.15 56.53,20.7 70.52,-2.41"
         style="fill:#eeaa17;fill-opacity:1;fill-rule:evenodd;stroke:none"
         id="path2216" />
      <path
         d="m 3781.1129,884.58025 c 7.02,-23 2.11,-53.79 -17.56,-68.88 -6.46,-7.59 -16.06,-12.37 -26.14,-11.06 -34.94,3.07 -57.15,46.45 -39.03,76.51 9.39,15.62 29.2,35 48.56,24.96 13.91,-0.03 28.37,-8.77 34.17,-21.53"
         style="fill:#eeaa17;fill-opacity:1;fill-rule:evenodd;stroke:none"
         id="path2218" />
      <path
         d="m 4449.1029,1759.0303 c -15.99,17.82 -30.28,37.09 -43.95,56.72 -14.3,20.15 -27.88,40.92 -38.68,63.21 -15.93,33.34 -32.75,66.57 -43.59,101.98 -14.95,50.29 -15.88,104.51 -5.62,155.71 8.67,39.52 25.81,77.16 47.41,111.2 13.69,20.71 30.99,38.92 49.2,55.7 18.84,15.87 39.97,29.36 62.48,39.4 15.52,5.97 31.88,10.42 48.44,11.99 17.99,0.97 36.24,-1.01 53.76,-5.15 29.74,-7.81 59.08,-22.71 78.04,-47.28 21.62,-29 28.73,-66.77 23.12,-102.16 -6.91,-50.04 -36.72,-110.39 -92.61,-115.7 -21,-0.97 -43.71,3.12 -59.46,18.03 -15.1,14.91 -23.99,35.99 -23.09,57.28 1.1,27.06 15.07,55.49 41.97,64.74 15.22,5.37 32.33,-1.07 44.96,-9.95 19.63,-14.63 23.44,-42.39 14.11,-64.03 -2.75,-7.01 -10.86,-24.8 -18.76,-25.97 -6.6,0.19 -6.19,9.5 -0.53,10.83 13.39,17.29 20.97,43.42 7.75,62.72 -7.68,11.35 -21.37,17.45 -34.69,18.86 -10.05,0.51 -18.92,-5.53 -26.36,-11.65 -12.21,-11.12 -17.27,-28.02 -18.84,-44.03 -1.18,-17.98 5.32,-35.34 17.06,-48.74 15.48,-17.47 41.36,-20.72 63.38,-17.65 42.01,10.53 65.36,54.97 73.53,94.23 7.82,35.02 4.2,73.45 -16.39,103.58 -24.43,34.6 -68.76,50.28 -109.46,52.53 -19.41,1.66 -38.09,-3 -56.32,-9.03 -45.46,-17.72 -83.6,-51.49 -111.53,-91.06 -22.32,-34.48 -39.96,-72.91 -48.37,-113.14 -9.06,-47.7 -8.35,-97 4.61,-143.84 8.23,-29.73 21.91,-57.58 34.82,-85.51 10.58,-22.99 22.49,-45.37 36.79,-66.28 13.46,-19.66 27.18,-39.17 42.25,-57.64 2.82,-3.43 5.69,-6.81 8.61,-10.14 2.53,-2.59 6.07,-6.33 2.7,-9.76 -1.77,-1.77 -5,-1.93 -6.74,0"
         style="fill:#a6681d;fill-opacity:1;fill-rule:evenodd;stroke:none"
         id="path2220" />
      <path
         d="m 4541.7329,358.31225 c -0.35,2.558 1.51,5.019 4.09,5.367 6.43,0.84 12.83,1.961 18.57,3.113 20.9,4.539 41.32,11.129 61.62,17.77 18.17,5.687 34.51,15.789 50.19,26.437 21.33,14.902 42.61,30.383 59.97,49.941 31.3,37.2 51.46,82.102 70.6,126.321 17.15,39.328 30.22,81.347 38.15,123.32 13.42,65.599 14.06,132.479 11.26,198.979 -1.68,37.83 -3.9,74.6 -9.95,111.80005 -3.42,25.16 -7.89,49.9 -13.07,74.45 0.11,0.28 0.21,0.55 0.3,0.82 1.97,6.25 3.68,12.57 5.39,18.89 19.86,-88.39 28.68,-179.00005 28.25,-269.65005 0.28,-95.058 -17.72,-190.39 -57.81,-276.859 -18.15,-40.61 -37.68,-81.551 -66.97,-115.442 -21.15,-23.269 -47.12,-41.589 -73.39,-58.648 -27.72,-18.652 -60.93,-26.16 -92.64,-35.211 -9.61,-2.352 -19.38,-4.191 -29.19,-5.469 -0.2,-0.031 -0.4,-0.051 -0.6,-0.051 -2.32,0 -4.45,1.731 -4.77,4.122"
         style="fill:#a6681d;fill-opacity:1;fill-rule:evenodd;stroke:none"
         id="path2222" />
      <path
         d="m 4723.6429,1428.8103 c -18.3,37.92 -42.47,73.82 -65.71,108.48 -24.04,35.8 -48.18,71.58 -75.87,104.7 -19.51,25.1 -41.38,48.19 -62.55,71.85 -28.14,33.57 -55.93,67.65 -80.02,104.28 -14.85,22.96 -27.88,47.06 -39.24,71.9 -14.34,31.23 -30.63,61.88 -39.78,95.16 -17.79,74.27 -20.44,158.08 18.22,226.34 27.99,48.57 70.03,92.63 124.68,109.66 23.91,7.83 50.09,5.85 74.35,0.59 31.21,-7.34 57.41,-31.52 69.27,-61.06 14.6,-35.31 0.01,-75.98 -21.63,-105.19 -6.18,-7.76 -13.28,-14.9 -20.91,-21.26 -4.36,-3.17 -8.52,-7.59 -13.83,-9.05 -2.8,-0.44 -5.56,1.89 -5.5,4.75 -0.11,3.21 3.14,4.44 5.46,5.73 8.79,6.01 16.52,13.46 23.62,21.36 18.23,21.6 30.05,50.18 29.09,78.64 -2.69,30.37 -23.79,56.8 -50.08,70.52 -19.81,9.17 -42.36,11.2 -63.9,10.3 -17.06,-0.91 -33.37,-7.52 -48.58,-14.76 -19.05,-9.74 -35.52,-22.09 -50.07,-37.54 -37.58,-37.05 -63.91,-85.87 -70.34,-138.41 -3.37,-21.94 -3.1,-45.18 -1.56,-66.83 1.45,-24.48 4.82,-48.95 11.22,-72.42 8.38,-30 22.81,-57.81 35.85,-85.96 13.33,-29.58 28.67,-58.08 46.73,-85.03 32.96,-47.74 70.32,-92.26 109.71,-134.79 55.06,-63.28 101.82,-133.2 146.26,-204.18 32.47,-55.26 56.9,-114.92 78.85,-175.01 3.61,-10.19 7,-20.45 10.23,-30.76 -1.49,-2.25 -2.39,-4.93 -3.08,-7.52 -0.77,-2.87 -1.37,-5.79 -1.95,-8.71 -18.3,59.81 -41.44,118.23 -68.94,174.22"
         style="fill:#a6681d;fill-opacity:1;fill-rule:evenodd;stroke:none"
         id="path2224" />
      <path
         d="m 4451.9629,1757.8603 c -13.55,23.45 -37.25,38.52 -60.59,50.4 -32.89,18.11 -81.77,22.22 -104.12,54.41 -17.02,26.09 -18.44,58.59 -19.6,88.83 -1.33,25.91 -1.1,52.68 -7.13,77.85 -9.5,34.5 -32.94,60.79 -64.04,77.55 6.58,-14.85 11.35,-30.97 11.67,-47.3 -0.29,-15.23 -6.9,-29.29 -13.33,-42.79 -14.57,-32.98 -36.44,-66.89 -30.29,-104.43 2.34,-22.89 12.7,-41.39 30.18,-56.21 14.1,-12.29 30,-22.33 47.84,-28.04 24.73,-8.58 51.2,-9.47 76.93,-13 26.1,-3.49 51.01,-8.12 75.74,-16.52 10.15,-3.58 19.76,-8.82 27.6,-16.26 1.9,-1.77 1.78,-4.95 0,-6.73 -2.43,-2.45 -5.93,-1.28 -7.93,1.09 -3.85,3.39 -8.14,6.25 -12.71,8.59 -15.78,7.66 -33.77,11.2 -50.5,14.96 -39.62,8.84 -81.61,6.53 -119.74,21.61 -26.11,10.58 -49.76,28.58 -65.14,52.23 -13.36,24.16 -16.36,54.36 -8.72,80.84 6.7,22.22 17.43,42.88 27.16,63.86 5.75,12.4 12.28,24.92 13.3,38.77 0.5,11.59 -2.73,22.93 -6.09,33.89 -2.41,6.67 -5.35,13.12 -8.3,19.56 -0.85,1.89 -1.52,3.87 -0.95,5.94 1.47,4.8 7.44,4.43 10.93,2.05 36.27,-18.36 63.06,-45.3 74.95,-84.82 8.65,-34.06 6.55,-69.61 9.16,-104.37 1.62,-20.69 4.89,-42.27 15.83,-60.26 11.79,-18.88 34.24,-26.12 53.96,-33.8 17.3,-6.12 34.76,-11.96 50.94,-20.71 16.62,-8.67 31.59,-18.26 44.86,-31.18 6.04,-5.94 11.22,-12.69 15.53,-19.98 1.36,-0.84 2.27,-2.34 2.27,-4.03 -0.22,-5.31 -7.03,-6.31 -9.67,-2"
         style="fill:#a6681d;fill-opacity:1;fill-rule:evenodd;stroke:none"
         id="path2226" />
      <path
         d="m 4774.3329,545.42125 c -2.42,0.668 -4.12,3.391 -3.33,5.859 5.37,16.641 11.27,33.11 15.76,50.012 12.13,46.066 21.13,92.738 23.94,140.199 2.58,49.179 1.89,98.479 1.27,147.709 -0.73,34.61 -4.6,68.91 -9.31,103.15 -20.61,128.15005 -49.89,256.02005 -103.08,374.87005 -25.51,55.92 -50.58,112.34 -81.5,165.49 -15.81,27.8 -34.33,53.15 -53.26,78.72 -31.78,47.67 -73.79,89 -125.19,114.88 -25.55,12 -53.7,22.2 -82.34,20.2 -19.13,-1.28 -38.14,-6.69 -54.56,-16.73 -8.49,-5.61 -14.77,-13.74 -20.49,-22.01 -11.19,-16 -14.13,-35.72 -19.4,-54.11 -4.75,-17.2 -10.87,-34.1 -19.35,-49.84 -22.13,-40.51 -67.18,-68.93 -113.89,-66.56 -6.22,0.55 -14.18,-0.06 -18.43,5.23 -1.98,3.41 0.37,7.09 3.58,8.69 6.75,3.6 15.14,6.57 21.24,10.93 25.33,17.71 31.58,44.61 25.27,73.6 -4.98,21.93 -13.12,43.72 -10.23,66.57 3.9,26.94 22.12,48.72 42.2,65.91 18.24,16.68 42.71,24.12 66.41,29.21 35.4,8.01 72.22,7.6 107.85,1.28 11.16,-2.37 61.66,-11.75 60.15,-25.41 0,-2.6 -2.17,-4.77 -4.75,-4.77 -2.49,0 -4.58,1.99 -4.76,4.44 -0.28,0.61 -1.81,1.19 -1.95,1.37 -25.58,11.79 -54.14,16.57 -81.97,18.86 -39.96,2.83 -81.18,-2.94 -117.43,-19.9 -10.01,-5.33 -18.48,-12.98 -26.57,-20.82 -8.45,-8.34 -16.43,-17.35 -21.89,-27.95 -16.48,-30.31 -4.25,-57.19 2.41,-87.7 8.62,-38.45 -6.06,-73.7 -42.86,-89.94 37.68,-2.55 75.04,16.75 97.5,46.63 17.61,23.17 25.61,51.77 32.71,79.56 4.5,20.06 13.05,39.14 27.28,54.21 9.42,10.74 22.68,16.98 35.94,21.65 31.94,11.64 65.15,8.52 96.55,-3.14 64.15,-23.05 116.36,-71.92 153.97,-127.77 21.75,-29.06 42.65,-58.73 60.35,-90.47 23.72,-43.01 44.92,-87.45 65.06,-132.24 30.95,-66.59 56.63,-135.78 74.62,-207.03 23.49,-95.02 44.92,-191.44005 49.36,-289.51005 1.63,-91.32 4.2,-184.31 -18.75,-273.431 -5.6,-26.05 -13.77,-51.359 -22.27,-76.578 -0.79,-2.48 -3.37,-4.039 -5.86,-3.32"
         style="fill:#a6681d;fill-opacity:1;fill-rule:evenodd;stroke:none"
         id="path2228" />
      <path
         d="m 4777.1729,551.42925 c -3.01,1.222 -3.96,5.59 -1.81,7.953 9.07,40.969 14.77,83.598 17.63,125.308 1.56,23.301 1.93,47.872 0.31,70.88 -2.96,34.27 -5.69,68.84 -19.12,100.59 -5.26,12.46 -11.62,24.46 -19.14,35.71 -15.42,21.75 -30.98,44.47 -53.72,59.19 -28.01,17.38 -58.16,31.21 -89.78,40.39 -27.47,6.85 -55.05,9.91005 -82.18,17.82005 -21.32,5.54 -41.75,13.96 -60.93,24.74 -25.65,14.09 -50.25,30.74 -70.73,51.79 -19.96,22.06 -35.57,47.71 -49.03,74.13 -16.27,31.16 -24.81,65.56 -29.83,100.16 -0.5,5.79 7.96,7.96 9.43,1.3 4.1,-27.69 9.91,-54.28 20.84,-79.94 13.71,-31.04 31.03,-60.59 53.07,-86.45 12.71,-13.91 27.83,-25.54 43.34,-36.12 27.14,-17.83 56.32,-32.99 87.97,-40.88 28.07,-8.02 56.26,-10.82 83.98,-18.29005 13.87,-3.95 27.26,-9.43 40.49,-15.18 27.05,-12.14 54.78,-25.58 74.84,-48.03 23.81,-27.7 45.39,-58.31 56.46,-93.46 13.39,-49.86 16.35,-102.31 13.54,-153.721 -2.32,-40.148 -7.8,-80.058 -15.43,-119.527 -1.88,-6.281 -1.57,-21.023 -10.2,-18.363"
         style="fill:#a6681d;fill-opacity:1;fill-rule:evenodd;stroke:none"
         id="path2230" />
      <path
         d="m 4781.2329,557.21025 c -2.65,0.289 -4.49,2.98 -4.06,5.559 0.25,4.043 0.11,8.07 -0.14,12.121 -1.33,18.179 -4.73,36.152 -9.53,53.742 -11.68,41.93 -29.76,83.019 -57.94,116.359 -31.25,33.439 -73.34,54.739 -115.16,71.499 -42.08,14.39 -83.97,30.37 -120.39,56.45 -37.26,23.69 -73.21,51.22 -97.38,88.69 -26.27,41.67005 -44.87,89.52005 -53.99,137.66005 -8.49,42.98 -6.74,85.99 -6.04,129.38 0.13,9.9 0.51,18.86 -1.08,28.23 -1.47,1.99 -0.92,4.98 1.01,6.47 2.11,1.63 5.03,1.15 6.68,-0.85 1.33,-1.59 1.73,-3.79 2.02,-5.77 1.45,-10.53 1.06,-21.19 0.83,-31.79 -0.65,-29.13 -1.15,-59.28 1.03,-88.09 3.5,-40.83 13.82,-80.82 30.51,-118.16 11.59,-26.76005 25.12,-53.11005 44.61,-75.00005 20.39,-23.87 45.84,-42.66 72.05,-59.48 21.12,-14.35 42.93,-27.98 66.71,-37.46 9.32,-4.07 18.81,-7.68 28.35,-11.16 2.69,-1.25 5.38,-2.5 8.08,-3.73 1.64,-0.74 3.31,-1.18 5.02,-1.18 0.17,0 0.35,0 0.52,0.01 6.68,-2.39 13.35,-4.79 19.98,-7.31 53.01,-21.91 107.23,-51.78 136.21,-103.381 24.86,-41.547 41.24,-88.598 46.71,-136.75 0.66,-6.34 1.17,-12.739 0.93,-19.118 -0.04,-0.949 -0.11,-1.921 -0.18,-2.882 -0.19,-2.368 -2.48,-4.098 -4.77,-4.098 -0.19,0 -0.4,0.008 -0.59,0.039"
         style="fill:#a6681d;fill-opacity:1;fill-rule:evenodd;stroke:none"
         id="path2232" />
      <path
         d="m 4785.9029,590.03025 c -2.58,0.352 -4.4,2.809 -4.07,5.371 1.18,9.329 2.38,18.661 3.09,27.938 1.06,14.883 -0.9,29.723 -3.2,44.391 -6.55,45.082 -20.66,89.36 -42.34,129.4 -12.72,21.28 -29.57,40.06 -47.6,56.99 -15.06,13.33 -31.88,24.39 -49.02,34.79 -13.92,8.08 -28.12,15.06 -42.92,21.12 -19.73,8.23 -40.45,13.77 -60.23,21.85 -50.95,20.11 -100.3,46.99 -138.96,86.40005 -13.73,15.1 -25.31,32.2 -35.48,49.89 -9.57,18.08 -15.86,37.73 -21.79,57.24 -9.78,32.41 -16.08,65.95 -23.27,98.72 -1.17,5.05 -2.42,10.08 -3.6,15.14 -1.29,3.24 0.29,7.65 4.29,7.58 2.47,0.01 4.54,-1.96 4.74,-4.34 2.74,-12.07 6.1,-25.25 8.35,-37.12 5.65,-27.99 12.06,-55.69 20.34,-83.01 4.75,-15.26 9.96,-30.44 16.8,-44.89 9.12,-17.56 20.72,-33.81 33.22,-49.12 42.41,-44.92005 98.86,-73.29005 156.19,-94.19005 65.04,-19.98 128.35,-53.46 170.48,-108.27 17.55,-20.79 28.21,-46.15 38.33,-71.13 9.2,-24.988 16.29,-50.808 20.48,-77.109 3.42,-19.832 6.46,-40.02 4.25,-60.16 -0.72,-7.821 -1.73,-15.602 -2.71,-23.399 -0.32,-2.582 -2.85,-4.433 -5.37,-4.082"
         style="fill:#a6681d;fill-opacity:1;fill-rule:evenodd;stroke:none"
         id="path2234" />
      <path
         d="m 4239.6329,524.12025 c 8.55,2.692 16.23,6.692 24.09,10.672 15.79,8.117 31.64,16.387 45.73,27.297 11.58,8.961 21.23,19.141 30.68,29.973 13.27,15.437 25.86,31.738 34.72,50.168 19.6,39.949 28.66,96.832 8.15,137.75 -22.88,44.09 -75.07,64.27 -121.63,47.52 -36.59,-14.6 -58.02,-57.14 -65.62,-93.688 0.02,0.136 0.05,0.289 0.07,0.418 0.02,0.082 0.03,0.152 0.03,0.222 -5.52,-29.043 -3.09,-58.57 2.37,-87.402 4.45,-24.969 9.22,-50.008 17.73,-73.961 6.53,-16.93 14.45,-33.348 23.68,-48.969 z m 213.02,-149.57 c -15.17,2.59 -30.23,6.469 -44.29,11.129 -22.99,7.531 -46.1,15.043 -67.93,25.562 -33.37,14.61 -60.5,39.711 -82.7,68.18 -29.58,39.508 -53.24,84.527 -62.57,133.32 -12.96,58.86 -22.15,120.77 11.02,174.989 13.36,24.23 34.72,45.59 62.35,52.03 57.88,14.09 117.11,-20.48 131.6,-78.47 4.41,-18.42 5.02,-37.6 2.56,-56.35 -4.78,-55.218 -36.34,-103.328 -75.87,-140.57 -12.67,-11.781 -27.2,-21.422 -42.49,-29.441 -13,-6.809 -25.82,-14.25 -39.69,-19.18 21.24,-35.168 48.9,-68.277 85.19,-88.437 25.74,-14.223 53.35,-23.411 81.07,-32.473 23.29,-7.5 47.17,-12.848 71.54,-14.25 53.22,-0.527 105.76,15.562 152.77,39.672 46.05,22.828 87.82,55.101 116.31,98.289 9.87,15.172 17.95,31.5 23.86,48.601 2.63,5.09 10.66,2.2 9.23,-3.269 -1.46,-2.762 -2.48,-5.613 -3.45,-8.613 -20.42,-52.168 -60.67,-95.129 -107.85,-124.489 -40.84,-25.078 -85.22,-45.05 -132.52,-53.898 -29.18,-6.25 -59.37,-8.16 -88.77,-2.223 l 0.63,-0.109 v 0"
         style="fill:#a6681d;fill-opacity:1;fill-rule:evenodd;stroke:none"
         id="path2236" />
      <path
         d="m 4414.8429,346.74125 c -43.66,5.239 -86.15,19.918 -124.31,41.668 -18.74,10.602 -37.47,21.61 -53.9,35.653 -20.62,18.039 -38.57,39.39 -52.87,62.75 -24.75,40.48 -40.35,86.148 -46.23,133.168 -6.17,43.14 -6.27,87.8 5.26,130.05 12.17,43.04 40.39,83.38 81.17,103.27 24.18,12.1 51.39,15 78.01,13.58 44.76,-3.17 78.16,-22.94 101.24,-61.63 10.67,-18.47 16.81,-39.04 21.3,-59.79 6,-25.441 5.38,-51.578 0.62,-77.141 -11,-65.527 -62.07,-134.148 -116.68,-170.828 -13.01,-8.59 -26.21,-17.07 -40.23,-23.922 -5.78,-2.269 -9.43,6.11 -3.72,8.782 7.02,3.281 13.26,7.168 19.86,11.101 31.03,17.969 58.52,41.449 80.16,70.067 18.47,23.101 33.74,48.711 43.65,76.589 8.12,24.704 12.21,51.692 10.98,77.5 -3.36,30.981 -11.02,62.572 -28.03,88.992 -22.29,33.1 -51.78,48.2 -91.26,50.9 -35.4,2.12 -72.28,-6.68 -99.03,-30.87 -57.72,-50.15 -64.15,-133.498 -53.96,-204.631 8.84,-71.078 40.17,-140.508 93.57,-188.699 18.7,-16.192 40.21,-28.559 61.78,-40.469 27.63,-15.281 58.75,-26.07 89.26,-32.781 51.5,-10.938 104.36,-4.078 155.87,2.41 4.75,0.719 9.66,0.891 14.24,2.359 2.24,1.922 5.87,1.371 7.34,-1.187 1.34,-2.293 0.48,-5.152 -1.71,-6.524 -7.41,-3.988 -16.51,-3.378 -24.64,-4.859 -10.46,-1.32 -20.9,-2.66 -31.36,-3.789 -31.99,-2.961 -64.39,-5.91 -96.38,-1.719"
         style="fill:#a6681d;fill-opacity:1;fill-rule:evenodd;stroke:none"
         id="path2238" />
      <path
         d="m 3570.3929,341.06925 c -46.01,2.153 -86.66,32.032 -110.05,70.551 -17.71,27.629 -29.69,58.629 -32.77,91.379 -5.68,57.641 3.27,101.43 29.61,152.82 20.71,45.61 64.63,77.922 113.37,87.672 24.14,4.969 49.6,2.199 73.45,-2.351 42.29,-8.09 80.39,-31.168 111.97,-59.598 16.72,-16.48 32.45,-33.891 48.71,-50.801 17.09,-17.09 35.73,-31.961 54.08,-47.531 33.51,-27.41 70.47,-51.641 111.43,-66.02 15.47,-5.308 31.24,-10.011 47.47,-12.289 19.47,-2.601 39.18,-2.132 58.79,-1.941 33.67,0.051 67.21,3.398 100.64,5.859 1.69,-0.3 3.16,-1.308 3.84,-2.937 0.97,-2.274 -0.02,-4.641 -1.84,-6.102 -1.9,-1.672 -4.84,-2.379 -6.9,-0.648 -51.67,-4.613 -104.05,-8.75 -155.82,-3.672 -77.12,11.641 -141.05,58.672 -197.71,109.332 -26.83,22.688 -48.8,51.148 -74.6,74.816 -40.12,33.411 -80.93,53.231 -133.27,56.473 -54.8,4.809 -111.8,-24.641 -138.73,-72.633 -13.37,-24.336 -24.67,-50.187 -31.35,-77.218 -9.3,-49.129 -7.62,-102.68 15.44,-147.829 10.82,-21.152 23.87,-41.582 41.98,-57.222 42.45,-36.477 102.58,-44.27 143.95,-2.02 27.39,32.653 18.32,79.641 -11.89,106.961 -22.36,21.039 -67.6,35.762 -84.92,1.61 -16.55,-33.34 10.98,-62.368 45.16,-60.301 4,0.293 8,1.031 11.67,2.711 5.8,2.332 9.4,-6.211 3.71,-8.782 -19.29,-7.726 -43.07,-2.578 -58.6,10.872 -32.14,25.949 -13.34,84.07 28.17,85.359 32.59,1.012 62.53,-19.399 79.22,-46.359 20.55,-32.61 17.79,-77.418 -11.08,-104.188 -20.28,-17.121 -46.96,-28.094 -73.79,-25.922 l 0.66,-0.051"
         style="fill:#a6681d;fill-opacity:1;fill-rule:evenodd;stroke:none"
         id="path2240" />
      <path
         d="m 3566.7729,409.29225 c -16.25,0.277 -31.39,6.418 -45.23,14.527 -13,7.11 -24.37,16.911 -33.04,28.95 -22.74,30.332 -28.03,69.793 -30.97,106.601 0.98,49.262 28.31,99.442 64.99,131.5 20.58,16.18 45.53,26.36 71.6,28.86 22.14,2.839 45.07,2.609 66.73,-3.239 62.95,-20.89 109.99,-80.601 156.38,-125.75 36.54,-35.961 72.57,-73.621 117.09,-99.801 26.27,-15.359 54.69,-26.101 84.16,-33.351 34.06,-9.34 68.84,-15.188 103.92,-11.598 17.27,0.989 34.45,3.469 51,8.578 10.58,3.293 21.26,6.289 31.8,9.7 1.33,0.523 2.76,0.73 4.12,0.14 3.67,-1.39 3.91,-7.41 0,-8.769 -4.24,-1.5 -8.52,-2.77 -12.83,-4.028 -18.52,-5.531 -37,-11.851 -56.37,-13.593 -36.52,-4.567 -73.51,-3.039 -109.1,6.671 -44.62,9.852 -88.21,26.262 -125.2,53.532 -50.64,36.59 -92.09,83.98 -136.5,127.547 -20.6,20.601 -42.06,42.101 -65.94,58.511 -16.94,11.129 -33.83,21.168 -53.66,25.09 -28.22,4.789 -57.92,3.07 -85.14,-5.91 -19.42,-7.07 -36.76,-18.23 -50.28,-33.781 -22.49,-25.188 -38.47,-55.598 -45.19,-88.727 -4.93,-23.422 0.55,-46.48 4.5,-69.543 3.8,-17.019 9.25,-33.34 18.87,-47.867 11.9,-18.961 31.09,-31.82 51.4,-40.211 19.43,-7.402 41.19,-5.262 59.68,3.777 1.92,7.473 11.5,3.844 9.26,-3.316 -3.07,-9.262 -36.82,-15.652 -46.05,-14.5"
         style="fill:#a6681d;fill-opacity:1;fill-rule:evenodd;stroke:none"
         id="path2242" />
      <path
         d="m 4804.0929,986.78025 c 1.81,71.25005 21.34,116.95005 61.23,174.99005 11.81,17.03 26.02,32.21 38.07,49.06 14.63,20.72 29.6,41.41 41.19,64.03 15.23,29.14 26.56,60.49 32.33,92.83 6.59,31.67 9.07,63.66 7.07,95.85 -1.49,47.74 -13.5,95.37 -41.57,134.62 -19.64,29.91 -47.59,53.78 -79.48,69.84 -34.07,16.3 -69.94,28.56 -105.38,41.53 -57.15,22.33 -122.11,58.47 -139.67,121.62 -6.1,23.05 -8.56,47.05 -7.83,70.87 0.08,2.59 2.16,4.74 4.8,4.72 2.55,-0.01 4.81,-2.2 4.74,-4.79 -0.74,-22.61 1.49,-44.16 6.86,-65.92 8.47,-37.15 38.7,-64.94 68.99,-85.37 69.91,-45.65 161.08,-51.42 223.26,-109.83 33.4,-31.56 57.02,-73.52 67.54,-118.21 9.19,-44.93 10.48,-91.82 3.54,-137.16 -2.89,-17.81 -6.65,-35.5 -11.31,-52.93 -10.27,-34.56 -26.45,-67.37 -46.5,-97.28 -10.48,-15.24 -20.79,-30.68 -32.37,-45.12 -10.25,-12.67 -21.27,-25.72 -30.17,-39.16 -22.45,-33.62 -42.2,-70 -50.18,-109.73 -3.9,-18.09 -4.08,-36.69 -5.85,-55.03005 0.16,0.63 0.19,1.2 0.13,1.82 0.61,-6.25 -8.54,-7.42 -9.44,-1.25"
         style="fill:#a6681d;fill-opacity:1;fill-rule:evenodd;stroke:none"
         id="path2244" />
      <path
         d="m 4951.2629,1585.2903 c -7.02,17.33 -15.18,34.13 -22.2,51.46 -6.09,15.66 -13.23,31 -22.88,44.78 -29.91,44.8 -76.15,75.48 -123.08,100.13 -21.79,10.35 -44.23,16.82 -66.44,24.82 -21.31,7.42 -41.77,17.08 -61.39,28.21 -16.04,8.63 -30.98,21.26 -37.3,38.85 -3.21,8.17 -4,17.19 -7.53,25.08 -0.61,5.39 6.84,7.41 9.46,2.79 4.23,-11.65 4.9,-24.88 12.55,-35.18 11.49,-17.22 32.38,-25.78 49.68,-35.01 31.06,-15.65 64.76,-23.58 96.51,-37.09 51.03,-24.47 101.56,-58.07 134.04,-105.26 16.77,-22.9 25.12,-50.21 36.95,-75.69 3.64,-8 7.06,-16.08 10.41,-24.2 0.99,-2.4 -0.13,-5.23 -2.54,-6.23 -2.35,-1.01 -5.25,0.12 -6.24,2.54"
         style="fill:#a6681d;fill-opacity:1;fill-rule:evenodd;stroke:none"
         id="path2246" />
      <path
         d="m 4778.6329,1122.1603 c -7.68,56.16 -1.98,119.53 22.44,171.16 12.55,25.27 28.02,50.39 36.91,76.93 7.75,22.66 13.67,45.93 18.69,69.33 3.23,13.57 4.18,28.64 3.1,42.21 -3.17,34.81 -9.1,69.86 -21.28,102.7 -10.05,26.52 -17.77,54.53 -33.06,78.65 -8.08,11.63 -18.15,22.26 -28.54,31.63 -2.68,2.3 -5.46,4.45 -8.35,6.46 -2.23,1.56 -4.52,3.17 -4.9,6.07 -0.34,2.58 1.54,5 4.11,5.34 2.05,0.26 3.99,-0.87 4.87,-2.64 1.96,-1.44 3.98,-2.74 5.89,-4.24 16.09,-13.46 31.1,-29.15 41.1,-47.73 5.71,-10.98 10.24,-22.49 14.61,-34.04 9.06,-24.35 18.37,-48.68 24.7,-73.89 5.88,-29.36 11.68,-59.33 10.57,-89.4 -1.4,-18.06 -6.34,-35.61 -10.59,-53.15 -5.86,-22.97 -12.7,-45.83 -22.85,-67.31 -11.59,-24.27 -26.35,-47.13 -35.45,-72.52 -3.75,-10.99 -6.65,-22.33 -8.91,-33.08 -5.49,-26.79 -7.56,-54.34 -6.56,-81.66 0.62,-9.88 1.55,-19.78 2.95,-29.59 0.36,-2.57 -1.56,-5.01 -4.11,-5.33 -2.55,-0.34 -4.98,1.51 -5.34,4.1"
         style="fill:#a6681d;fill-opacity:1;fill-rule:evenodd;stroke:none"
         id="path2248" />
      <path
         d="m 4797.6329,1026.9803 c -2.39,10.13 -2.14,20.67 -2.87,31.02 -0.83,20.07 -2.37,40.3 0.26,60.3 5.1,33.94 15.67,66.97 29.04,98.53 15.67,34.9 34,68.6 49.64,103.44 16.37,33.16 24.88,70.21 32.69,105.94 13.09,67.48 6.81,146.96 -31.12,205.69 -7.97,11.53 -16.91,23.6 -25.82,34.06 -4.91,5.66 -10.32,10.84 -15.99,15.74 -1.94,1.74 -1.76,4.98 0,6.74 6.97,10.2 44.13,-43.39 48.67,-49.72 30.25,-44.82 40.66,-102.2 39.95,-155.56 -0.43,-27.59 -4.7,-54.86 -11.58,-81.54 -4.69,-19.66 -9.23,-39.46 -16.6,-58.32 -21.29,-54.5 -52.82,-104.17 -72.4,-159.21 -9.97,-30.37 -19.3,-61.78 -18.39,-94.05 0.68,-19.58 0.77,-39.49 3.24,-58.58 0.3,-1.24 0.75,-2.55 0.75,-3.81 0,-2.59 -2.16,-4.76 -4.76,-4.76 -2.36,0 -4.37,1.8 -4.71,4.09"
         style="fill:#a6681d;fill-opacity:1;fill-rule:evenodd;stroke:none"
         id="path2250" />
      <path
         d="m 4123.7529,514.31925 c -64.48,11.993 -141.06,58.77 -179.08,112.512 -11.41,17.09 -19.67,36.66 -21.27,57.289 -2.52,27.328 1.7,57.281 20.62,78.37 28.67,29.26 55.1,36.79 68.75,80.74 9.16,29.55 -1.24,52.19 -21.71,73.66 -22.66,21.62 -50.51,36.88 -76.55,53.99 11.19,-16.82 18.28,-36.27 21.9,-56.1 2.57,-16.46 0.44,-33.5 -3.9,-49.48 -8.92,-28.26 -25.59,-54.48 -31.81,-83.45 -10.83,-56.679 0.84,-117.39 34.87,-164.288 43.6,-59.84 115.5,-95.762 188.18,-103.243 z m 48.81,-9.879 c -26.81,-0.48 -54.01,-1.492 -80.22,5.219 -73.97,15.61 -144.78,59.903 -180.21,128.071 -14.58,27.199 -22.76,57.32 -24.34,88.101 -1.9,30.949 1.77,62.219 14.29,90.779 8.12,20.9 20.59,41.34 24.07,63.61 6.02,31.21 -4.31,63.82 -22.3,89.3 -4.33,5.77 -9.06,11.21 -14.23,16.25 -2.55,2.2 -5.73,5.58 -3.23,9.01 4.75,6.16005 12.99,-3.8 17.77,-5.98 12.46,-8.18 25.21,-15.93 37.72,-24.02 23.69,-15.89 50.42,-30.95 67.18,-54.51 19.84,-25.68 21.04,-54.15 7.75,-83.16 -8.94,-21.66 -25.77,-38.32 -44.38,-51.94 -10.62,-8.68 -22.34,-17.81 -29.11,-29.851 -16.81,-30.589 -13.94,-73.3 3.18,-103.199 32.09,-55.441 111.13,-103.531 172.7,-117.262 16.63,-3.277 33.15,-5.019 49.92,-5.628 1.94,-0.02 3.88,0 5.82,0.109 4.08,0.371 6.67,-5.149 3.7,-7.988 2.59,-3.871 -1.88,-9.082 -6.08,-6.911 v 0"
         style="fill:#a6681d;fill-opacity:1;fill-rule:evenodd;stroke:none"
         id="path2252" />
      <path
         d="m 3891.8429,681.58925 c -8.32,4.762 -14.34,12.812 -20.6,19.941 -11.57,14.039 -22.05,28.989 -30.82,44.93 -6.98,12.08 -12.22,24.62 -15.99,37.89 -3.94,14.85 -8.2,31.08 -4.25,46.33 0.98,2.42 3.25,3.74 5.83,3.49 3.93,-0.36 6.14,-4.64 7.77,-7.67 17.8,-37.79 29.48,-79.2 54.87,-112.81 2.97,-4.058 6.03,-8.031 9.14,-11.98 1.59,-2.039 1.4,-5.02 -0.63,-6.711 -1.95,-1.629 -5.1,-1.41 -6.71,0.633 -5.91,7.547 -11.66,15.207 -16.92,23.25 -19.82,30.027 -31.09,64.528 -45.29,97.348 0.9,-15.81 5.11,-30.31 10.55,-44.72 -0.03,0.09 -0.07,0.21 -0.12,0.33 11.45,-27.181 28.43,-52.001 48.26,-73.759 2.67,-2.66 5.29,-5.391 8.36,-7.609 2.21,-1.09 3.5,-3.52 2.64,-5.981 -0.84,-2.371 -3.72,-3.883 -6.09,-2.902"
         style="fill:#a6681d;fill-opacity:1;fill-rule:evenodd;stroke:none"
         id="path2254" />
      <path
         d="m 3889.9229,683.69825 c -35.2,16.684 -66.97,40.051 -93.43,68.641 -16.67,18.681 -29.84,40.321 -40.48,62.921 3.99,-36.04 37.13,-70.718 64.32,-92.55 21.11,-15.941 43.53,-32.59 69.59,-39.012 z m 0.39,-9.738 c -33.91,6.602 -74.39,38.082 -99.11,61.84 -19.23,19.58 -47.99,56.42 -44.07,85.16 0.68,6 6.3,12.44 12.03,7.07 5.72,-6.82 8.3,-15.77 12.72,-23.41 9.9,-17.86 21.25,-35.16 35.41,-49.95 17.33,-17.261 35.83,-33.46 56.83,-46.038 10.19,-5.942 20.42,-11.992 31.14,-16.922 4.74,-1.371 3.92,-9.121 -1.14,-9.219 4.06,-3.07 1.12,-9.48 -3.81,-8.531 v 0"
         style="fill:#a6681d;fill-opacity:1;fill-rule:evenodd;stroke:none"
         id="path2256" />
      <path
         d="m 3744.6629,799.32025 c -20.01,-0.11 -38.02,11.71 -49.4,27.62 -9.87,12.26 -12.57,28.79 -8.57,43.86 7.34,30.05 42.05,53.08 72.17,41.43 39.22,-14.38 37.94,-70.24 12.35,-96.89 -1.55,-3.81 -7.64,-3.81 -9.05,0.18 -1.63,4.66 3.92,7.37 5.87,10.97 2.77,3.95 5.73,9.01 7.52,13.26 10.68,25.79 2.88,62.38 -29.15,65.74 -29.34,3.2 -56.19,-26.49 -51.49,-55.36 5.53,-24.16 30.92,-44.59 56.15,-40.83 3.9,0.55 9.45,3.8 11.55,-1.39 0.9,-2.33 -0.27,-5.33 -2.72,-6.16 -4.94,-1.64 -10.03,-2.44 -15.23,-2.43"
         style="fill:#a6681d;fill-opacity:1;fill-rule:evenodd;stroke:none"
         id="path2258" />
      <path
         d="m 3836.4629,813.33025 c -0.26,2.57 1.6,4.8 4.08,5.2 9.62,4.35 17.05,12.92 22.58,21.74 14.92,31.93 -19.82,55.95 -48.57,42.3 -8.48,-4.1 -16.22,-10.39 -20.87,-18.68 -3.35,-5.23 -11.23,-0.38 -8.09,5.04 12.66,21.91 41.77,33.8 65.42,22.99 29.39,-11.13 32.81,-49.29 10.46,-69.37 -4.17,-4.57 -21.86,-21.15 -25.01,-9.22"
         style="fill:#a6681d;fill-opacity:1;fill-rule:evenodd;stroke:none"
         id="path2260" />
      <path
         d="m 3815.3529,809.87025 c -15.07,1.86 -27.09,12.7 -32.15,26.78 -1.27,3.24 -2.96,7.43 -1.43,10.75 2.22,5.6 10.75,2.65 8.94,-3.14 3.2,-12.63 12.79,-23.59 26.25,-25.01 6.13,-1.22 4.55,-10.31 -1.61,-9.38"
         style="fill:#a6681d;fill-opacity:1;fill-rule:evenodd;stroke:none"
         id="path2262" />
      <path
         d="m 4424.2929,1850.8903 c -2.38,1.51 -2.88,4.93 -1.09,7.11 2.81,10.08 1.6,20.98 2.53,31.38 0.82,19.4 1.2,38.83 1.68,58.25 1.96,49.68 -1.15,99.38 1.09,149.03 0.88,31.14 2.22,63.31 1.9,94.25 -0.72,14.47 0.4,48.37 -12.67,56.3 -5.62,-3.76 -11.55,3.07 -6.3,7.52 9.79,6.55 19.46,-4.46 22.12,-13.4 5.85,-15.65 5.85,-32.84 6.33,-49.26 0.57,-60.24 -4.36,-120.41 -2.26,-180.65 0.33,-38.93 -0.99,-77.84 -2.16,-116.76 -0.28,-7.61 -0.59,-15.22 -0.95,-22.85 -0.64,-6.83 0.25,-24.87 -10.22,-20.92"
         style="fill:#a6681d;fill-opacity:1;fill-rule:evenodd;stroke:none"
         id="path2264" />
      <path
         d="m 4449.6229,1811.4103 c 0.81,26.01 1.51,52.02 2.68,78.02 0.21,70.76 -2.04,141.5 -0.81,212.26 0.36,30.51 0.25,61.01 0.23,91.5 -0.14,19.66 -1.01,40.47 0.44,59.78 1.74,14.44 0.63,36.72 13.33,46.03 7.61,4.42 13.26,-8.31 3.84,-9.2 -11.35,-15.68 -7.9,-76.16 -8.07,-97.41 0.23,-81.1 -1.4,-162.2 0.29,-243.28 1.23,-38.8 -0.52,-76.07 -1.62,-114.7 -0.14,-7.68 -0.63,-15.33 -0.78,-23 -0.06,-2.59 -2.13,-4.77 -4.76,-4.77 -2.56,0 -4.82,2.17 -4.77,4.77"
         style="fill:#a6681d;fill-opacity:1;fill-rule:evenodd;stroke:none"
         id="path2266" />
      <path
         d="m 4546.3529,2220.4203 c 0.35,21.44 5.79,80.06 -9.96,94.19 -6.96,-1.32 -7.9,9.14 -1.13,9.86 14.61,-0.81 18.59,-22.42 20.01,-34.11 2.67,-23.23 1.74,-46.64 0.6,-69.94 -0.17,-6.21 -9.4,-6.28 -9.52,0"
         style="fill:#a6681d;fill-opacity:1;fill-rule:evenodd;stroke:none"
         id="path2268" />
      <path
         d="m 4571.0529,2219.8403 c -1.38,15.01 -1.04,29.7 0.03,44.67 0.98,13.08 1.48,26.66 6.55,38.93 8.88,22.53 22.23,6.27 11.46,1.33 -2.89,-4.23 -4.36,-9.27 -5.49,-14.23 -2.84,-15.05 -3.23,-29.15 -3.92,-44.1 -0.21,-7.19 0.04,-14.36 0.51,-21.52 0.47,-3.53 0.86,-8.51 -3.78,-9.15 -2.48,-0.34 -5.15,1.48 -5.36,4.07"
         style="fill:#a6681d;fill-opacity:1;fill-rule:evenodd;stroke:none"
         id="path2270" />
      <path
         d="m 4547.8629,1691.0903 c -0.52,78.24 2.4,156.45 1.37,234.7 -0.9,50.19 -2.94,100.61 -6.65,150.65 -0.46,6.54 -1.22,13.1 -2.34,19.54 0.09,5.89 8.94,6.47 9.52,0.35 4.71,-32.14 4.93,-64.32 6.57,-96.61 3.92,-70.68 2.66,-141.49 1.61,-212.24 -0.43,-28.39 -0.61,-56.77 -0.56,-85.17 0,-3.74 0,-7.48 0,-11.22 -0.1,-6.01 -9.36,-6.44 -9.52,0"
         style="fill:#a6681d;fill-opacity:1;fill-rule:evenodd;stroke:none"
         id="path2272" />
      <path
         d="m 4575.3929,1650.6303 c -1.32,96.23 -4.16,192.45 -3.25,288.71 0.22,29.93 0.19,59.86 0.34,89.79 0.09,16.52 -0.03,33.14 2.8,49.47 0.69,5.38 3.68,14.57 10.57,12.67 3.83,-1.66 3.56,-6.72 0.38,-8.83 -2.71,-7.08 -2.85,-15.7 -3.58,-22.65 -0.94,-19.71 -0.62,-39.47 -0.75,-59.19 -0.32,-79.82 -1.04,-159.66 1.41,-239.45 0.07,-28.77 0.34,-57.54 1.33,-86.3 0.17,-7.85 0.24,-15.7 0.27,-23.54 0.31,-2.8 -1.88,-5.48 -4.77,-5.45 -2.6,0 -4.73,2.17 -4.75,4.77"
         style="fill:#a6681d;fill-opacity:1;fill-rule:evenodd;stroke:none"
         id="path2274" />
      <path
         d="m 4556.5429,1011.1803 c -0.37,129.31 -2.37,258.62 -3.77,387.92 -0.44,53.51 -3.1,106.95 -5.34,160.41 -1.31,25.66 -1.46,50.27 -5.81,75.31 -0.25,2.64 -1.69,4.85 -2.08,7.41 0,3.4 3.47,5.98 6.72,4.61 5.69,-2.82 6.11,-21.73 7.18,-27.99 10.32,-147.27 9.36,-295.06 11.53,-442.62 -0.09,-50.55 0.98,-101.12 1.06,-151.68 0.02,-4.46 0.02,-8.91 0.03,-13.37 0,-2.6 -2.17,-4.77 -4.76,-4.77 -2.59,0 -4.76,2.17 -4.76,4.77"
         style="fill:#a6681d;fill-opacity:1;fill-rule:evenodd;stroke:none"
         id="path2276" />
      <path
         d="m 4561.4529,836.19025 c 0,1 0.32,1.94 0.87,2.71 2.82,-1.34 5.64,-2.66 8.48,-3.97 -0.57,-2.01 -2.44,-3.51 -4.59,-3.51 -2.6,0 -4.76,2.17 -4.76,4.77"
         style="fill:#a6681d;fill-opacity:1;fill-rule:evenodd;stroke:none"
         id="path2278" />
      <path
         d="m 4560.6829,829.35025 c 0,2.6 2.17,4.77 4.75,4.77 2.6,0 4.77,-2.17 4.77,-4.77 0,-2.59 -2.17,-4.76 -4.77,-4.76 -2.58,0 -4.75,2.17 -4.75,4.76"
         style="fill:#a6681d;fill-opacity:1;fill-rule:evenodd;stroke:none"
         id="path2280" />
      <path
         d="m 4535.7729,381.65125 c -1.55,3.629 1.6,6.231 4.72,7.25 3.15,1.59 5.97,3.778 8.31,6.399 16.08,19.058 12.21,74.992 13.26,100.801 0.63,91.621 -4.9,183.121 -4.82,274.739 -0.08,16.22 -0.85,32.45 -0.73,48.67 0.68,5.42 -1.55,15 5.79,15.82 3.43,0.04 5.9,-3.87 4.24,-6.91 -1.03,-10.61 -0.41,-21.34 -0.23,-31.98 0.24,-91.781 4.63,-183.48 5.2,-275.238 0.08,-19.621 0.24,-39.23 -0.38,-58.844 -1.64,-24.789 0.91,-53.359 -15.61,-73.828 -3.9,-4 -15.94,-14.648 -19.75,-6.879"
         style="fill:#a6681d;fill-opacity:1;fill-rule:evenodd;stroke:none"
         id="path2282" />
      <path
         d="m 4590.6329,1009.2603 c -2.56,0.26 -4.46,2.73 -4.17,5.25 0.51,10.87 0.48,21.76 0.37,32.65 -0.54,59.46 -5.36,118.76 -5.4,178.23 -1.4,61.1 -3.67,122.19 -2.98,183.32 0.07,36.67 -0.46,73.36 -1.28,110.02 -0.6,26.1 -0.54,52.34 -3.76,78.26 -4.98,6.3 5.54,11.93 8.68,4.15 2.43,-8.57 1.97,-17.69 2.79,-26.5 0.75,-12.18 1.21,-24.38 1.46,-36.59 0.4,-24.46 1.01,-48.92 1.36,-73.38 0.23,-73.28 0.25,-146.53 2.77,-219.78 0.7,-24.22 1.01,-48.47 1.48,-72.69 0.76,-35.73 3.79,-71.38 4.17,-107.12 0.16,-11.33 0.35,-22.64 0.29,-33.96 -0.03,-5.9 -0.2,-11.79 -0.5,-17.68 -0.12,-2.6 -2.81,-4.46 -5.28,-4.18"
         style="fill:#a6681d;fill-opacity:1;fill-rule:evenodd;stroke:none"
         id="path2284" />
      <path
         d="m 4589.6929,1003.7303 c -6.49,0.74 -5.74,13.01 1.08,12.23 3.1,-0.34 4.58,-3.36 4.13,-6.2 0.95,-3.13 -1.92,-6.5 -5.21,-6.03"
         style="fill:#a6681d;fill-opacity:1;fill-rule:evenodd;stroke:none"
         id="path2286" />
      <path
         d="m 4605.0229,400.05025 c -25.05,2.551 -17.79,62.672 -18.22,80.902 0.08,9.41 -0.05,18.817 0,28.227 0.86,99.75 -2.32,199.48 -1.65,299.211 0.01,3.11 0.02,6.21 0.15,9.31 0.13,3.13 -0.15,7.9 3.78,8.89 4.91,0.8 6.8,-2.94 5.81,-7.27 -0.44,-9.57 -0.2,-19.17 -0.17,-28.75 -0.63,-70.469 1.4,-140.93 1.64,-211.411 0.68,-47.23 -0.75,-94.98 -0.38,-142.109 0.7,-7.18 1.83,-14.379 4.22,-21.219 0.98,-2.211 1.81,-5.031 4.17,-6.082 9.09,0.59 9.18,-10.277 0.65,-9.699"
         style="fill:#a6681d;fill-opacity:1;fill-rule:evenodd;stroke:none"
         id="path2288" />
      <path
         d="m 4680.2829,964.13025 c -0.74,36.93005 -0.39,73.87005 -0.67,110.82005 -0.4,55.27 -1.79,110.85 -0.87,166.07 0.87,38.81 2.39,77.63 -0.09,116.42 -1.89,24.17 -1.5,49.11 -7.36,72.48 0,0.01 0,0.01 -0.01,0.01 -7.66,6.87 7.13,15.84 10.15,-0.54 3.05,-14.2 3.95,-28.73 5,-43.18 1.96,-29.53 3.6,-59.34 3.15,-88.91 -1.5,-52.99 -2.08,-105.79 -1.23,-158.77 0.69,-39.48 1.02,-78.98 0.94,-118.47 -0.13,-18.47 0.25,-36.94005 0.5,-55.43005 0.18,-5.96 -8.96,-6.99 -9.51,-0.5"
         style="fill:#a6681d;fill-opacity:1;fill-rule:evenodd;stroke:none"
         id="path2290" />
      <path
         d="m 4664.2929,429.58125 c -3.73,3.598 0.02,6.961 2.12,10.078 7.48,14.25 6.3,32.301 6.98,47.512 0.19,19.461 0.41,38.91 0.37,58.371 -0.34,75.84 0.93,151.637 -3.65,227.378 -0.03,3.32 -1.1,7.86 2.58,9.59 4.8,1.92 7.78,-2.53 6.87,-7.01 3.12,-58.591 4.2,-117.618 3.57,-176.22 -0.08,-37.05 0.35,-74.199 -0.22,-111.25 -0.55,-17.09 0.29,-35.3 -7.13,-51.121 -2.19,-4.047 -6.21,-11.461 -11.49,-7.328"
         style="fill:#a6681d;fill-opacity:1;fill-rule:evenodd;stroke:none"
         id="path2292" />
      <path
         d="m 4704.7429,947.53025 c -0.99,78.15005 -3.69,156.25005 -4.23,234.41005 -0.5,35 0.24,68.75 1.85,103.44 1.27,17 -0.14,34.79 5.68,51.04 1.81,3.08 2.72,7.69 6.86,8.14 5.68,0.66 8.08,-5.95 3.41,-9.19 -6.43,-12.02 -4.73,-26.75 -5.96,-39.98 -1.07,-22.77 -1.96,-46.68 -2.34,-69.11 -0.26,-61.31 0.95,-122.61 2.42,-183.9 0.88,-25.93 1.23,-51.87005 1.52,-77.81005 0.1,-5.51 0.27,-11.02 0.3,-16.52 0.02,-2.6 -1.8,-4.87 -4.49,-5.02 -2.5,-0.14 -5.01,1.9 -5.02,4.5"
         style="fill:#a6681d;fill-opacity:1;fill-rule:evenodd;stroke:none"
         id="path2294" />
      <path
         d="m 4707.2729,460.01125 c -12.36,7.828 -8.81,30.578 -9.88,43.469 -0.29,18.859 -0.91,37.73 -1.42,56.582 -1.2,39.367 -0.65,79.539 0.29,118.636 0.35,21.364 0.75,42.524 0.15,63.871 -0.12,3.403 -0.28,6.821 -0.29,10.221 -0.02,2.23 0.1,4.79 2.29,6.06 2.98,2.01 7.46,-0.01 7.56,-3.73 -0.05,-29.32 0.6,-59.461 -0.47,-88.75 -0.9,-40.019 -1.03,-80.058 0.38,-120.058 0.63,-18.59 0.94,-37.2 1.3,-55.813 0.73,-7.207 -0.55,-16.328 4.52,-22.047 5.43,-2.953 1.17,-11.293 -4.43,-8.441"
         style="fill:#a6681d;fill-opacity:1;fill-rule:evenodd;stroke:none"
         id="path2296" />
    </g>
  </g>
</svg>
